<svg xmlns="http://www.w3.org/2000/svg" viewBox="0 0 64 64"><clipPath id="t"><rect width="64" height="64" rx="12.8"/></clipPath><g clip-path="url(#t)"><rect width="64" height="64" fill="#040308"/><g font-family="ui-monospace,Consolas,monospace" font-size="2.65" text-anchor="middle" dominant-baseline="central"><text x="1.14" y="1.14" fill="#eae3f7" fill-opacity="0.32">-</text><text x="5.71" y="1.14" fill="#eae3f7" fill-opacity="0.30">-</text><text x="10.29" y="1.14" fill="#eae3f7" fill-opacity="0.18">·</text><text x="14.86" y="1.14" fill="#eae3f7" fill-opacity="0.15">·</text><text x="19.43" y="1.14" fill="#eae3f7" fill-opacity="0.16">·</text><text x="21.71" y="1.14" fill="#eae3f7" fill-opacity="0.07">.</text><text x="24.00" y="1.14" fill="#eae3f7" fill-opacity="0.12">.</text><text x="28.57" y="1.14" fill="#eae3f7" fill-opacity="0.35">=</text><text x="33.14" y="1.14" fill="#eae3f7" fill-opacity="0.19">·</text><text x="37.71" y="1.14" fill="#eae3f7" fill-opacity="0.19">·</text><text x="42.29" y="1.14" fill="#eae3f7" fill-opacity="0.18">·</text><text x="46.86" y="1.14" fill="#eae3f7" fill-opacity="0.25">:</text><text x="51.43" y="1.14" fill="#eae3f7" fill-opacity="0.17">·</text><text x="56.00" y="1.14" fill="#eae3f7" fill-opacity="0.34">=</text><text x="60.57" y="1.14" fill="#eae3f7" fill-opacity="0.20">·</text><text x="12.57" y="3.43" fill="#eae3f7" fill-opacity="0.09">.</text><text x="17.14" y="3.43" fill="#eae3f7" fill-opacity="0.12">.</text><text x="21.71" y="3.43" fill="#eae3f7" fill-opacity="0.14">·</text><text x="26.29" y="3.43" fill="#eae3f7" fill-opacity="0.15">·</text><text x="35.43" y="3.43" fill="#eae3f7" fill-opacity="0.10">.</text><text x="49.14" y="3.43" fill="#eae3f7" fill-opacity="0.11">.</text><text x="58.29" y="3.43" fill="#eae3f7" fill-opacity="0.10">.</text><text x="62.86" y="3.43" fill="#eae3f7" fill-opacity="0.17">·</text><text x="1.14" y="5.71" fill="hsl(70 92% 63%)" fill-opacity="0.31">.</text><text x="5.71" y="5.71" fill="#eae3f7" fill-opacity="0.19">·</text><text x="10.29" y="5.71" fill="#eae3f7" fill-opacity="0.10">.</text><text x="14.86" y="5.71" fill="#eae3f7" fill-opacity="0.22">:</text><text x="19.43" y="5.71" fill="#eae3f7" fill-opacity="0.24">:</text><text x="24.00" y="5.71" fill="#eae3f7" fill-opacity="0.22">:</text><text x="28.57" y="5.71" fill="#eae3f7" fill-opacity="0.14">·</text><text x="33.14" y="5.71" fill="#eae3f7" fill-opacity="0.25">:</text><text x="37.71" y="5.71" fill="#eae3f7" fill-opacity="0.12">.</text><text x="42.29" y="5.71" fill="#eae3f7" fill-opacity="0.27">-</text><text x="46.86" y="5.71" fill="#eae3f7" fill-opacity="0.22">:</text><text x="51.43" y="5.71" fill="#eae3f7" fill-opacity="0.14">·</text><text x="53.71" y="5.71" fill="#eae3f7" fill-opacity="0.07">.</text><text x="56.00" y="5.71" fill="#eae3f7" fill-opacity="0.11">.</text><text x="60.57" y="5.71" fill="#eae3f7" fill-opacity="0.18">·</text><text x="8.00" y="8.00" fill="#eae3f7" fill-opacity="0.20">·</text><text x="12.57" y="8.00" fill="#eae3f7" fill-opacity="0.13">.</text><text x="21.71" y="8.00" fill="#eae3f7" fill-opacity="0.10">.</text><text x="26.29" y="8.00" fill="#eae3f7" fill-opacity="0.20">:</text><text x="30.86" y="8.00" fill="#eae3f7" fill-opacity="0.10">.</text><text x="35.43" y="8.00" fill="#eae3f7" fill-opacity="0.30">-</text><text x="49.14" y="8.00" fill="#eae3f7" fill-opacity="0.08">.</text><text x="53.71" y="8.00" fill="#eae3f7" fill-opacity="0.08">.</text><text x="62.86" y="8.00" fill="#eae3f7" fill-opacity="0.20">:</text><text x="1.14" y="10.29" fill="hsl(57 92% 63%)" fill-opacity="0.50">-</text><text x="5.71" y="10.29" fill="hsl(64 92% 63%)" fill-opacity="0.42">:</text><text x="10.29" y="10.29" fill="#eae3f7" fill-opacity="0.34">=</text><text x="14.86" y="10.29" fill="#eae3f7" fill-opacity="0.13">.</text><text x="19.43" y="10.29" fill="hsl(70 92% 63%)" fill-opacity="0.36">·</text><text x="24.00" y="10.29" fill="#eae3f7" fill-opacity="0.27">-</text><text x="28.57" y="10.29" fill="#eae3f7" fill-opacity="0.34">=</text><text x="30.86" y="10.29" fill="#eae3f7" fill-opacity="0.10">.</text><text x="33.14" y="10.29" fill="#eae3f7" fill-opacity="0.39">=</text><text x="35.43" y="10.29" fill="#eae3f7" fill-opacity="0.30">-</text><text x="37.71" y="10.29" fill="#eae3f7" fill-opacity="0.40">+</text><text x="42.29" y="10.29" fill="#eae3f7" fill-opacity="0.19">·</text><text x="46.86" y="10.29" fill="#eae3f7" fill-opacity="0.36">=</text><text x="49.14" y="10.29" fill="#eae3f7" fill-opacity="0.14">·</text><text x="51.43" y="10.29" fill="#eae3f7" fill-opacity="0.26">:</text><text x="56.00" y="10.29" fill="#eae3f7" fill-opacity="0.32">-</text><text x="60.57" y="10.29" fill="#eae3f7" fill-opacity="0.27">-</text><text x="3.43" y="12.57" fill="#eae3f7" fill-opacity="0.18">·</text><text x="12.57" y="12.57" fill="hsl(65 92% 63%)" fill-opacity="0.42">:</text><text x="21.71" y="12.57" fill="#eae3f7" fill-opacity="0.08">.</text><text x="26.29" y="12.57" fill="#eae3f7" fill-opacity="0.17">·</text><text x="28.57" y="12.57" fill="#eae3f7" fill-opacity="0.51">i</text><text x="30.86" y="12.57" fill="#eae3f7" fill-opacity="0.48">i</text><text x="44.57" y="12.57" fill="#eae3f7" fill-opacity="0.29">-</text><text x="49.14" y="12.57" fill="#eae3f7" fill-opacity="0.10">.</text><text x="58.29" y="12.57" fill="#eae3f7" fill-opacity="0.21">:</text><text x="1.14" y="14.86" fill="#eae3f7" fill-opacity="0.16">·</text><text x="5.71" y="14.86" fill="hsl(63 92% 63%)" fill-opacity="0.46">:</text><text x="10.29" y="14.86" fill="hsl(70 92% 63%)" fill-opacity="0.42">:</text><text x="14.86" y="14.86" fill="#eae3f7" fill-opacity="0.19">·</text><text x="19.43" y="14.86" fill="#eae3f7" fill-opacity="0.19">·</text><text x="21.71" y="14.86" fill="#eae3f7" fill-opacity="0.64">*</text><text x="24.00" y="14.86" fill="#eae3f7" fill-opacity="0.66">x</text><text x="26.29" y="14.86" fill="#eae3f7" fill-opacity="0.19">·</text><text x="28.57" y="14.86" fill="#eae3f7" fill-opacity="0.19">·</text><text x="33.14" y="14.86" fill="#eae3f7" fill-opacity="0.17">·</text><text x="37.71" y="14.86" fill="#eae3f7" fill-opacity="0.48">i</text><text x="42.29" y="14.86" fill="#eae3f7" fill-opacity="0.23">:</text><text x="46.86" y="14.86" fill="#eae3f7" fill-opacity="0.11">.</text><text x="51.43" y="14.86" fill="#eae3f7" fill-opacity="0.13">.</text><text x="56.00" y="14.86" fill="#eae3f7" fill-opacity="0.21">:</text><text x="60.57" y="14.86" fill="#eae3f7" fill-opacity="0.32">-</text><text x="8.00" y="17.14" fill="hsl(70 92% 63%)" fill-opacity="0.37">·</text><text x="12.57" y="17.14" fill="#eae3f7" fill-opacity="0.07">.</text><text x="17.14" y="17.14" fill="#eae3f7" fill-opacity="0.41">+</text><text x="19.43" y="17.14" fill="#eae3f7" fill-opacity="0.62">*</text><text x="21.71" y="17.14" fill="#eae3f7" fill-opacity="0.12">.</text><text x="24.00" y="17.14" fill="#eae3f7" fill-opacity="0.22">:</text><text x="26.29" y="17.14" fill="#eae3f7" fill-opacity="0.22">:</text><text x="35.43" y="17.14" fill="#eae3f7" fill-opacity="0.30">-</text><text x="40.00" y="17.14" fill="#eae3f7" fill-opacity="0.12">.</text><text x="44.57" y="17.14" fill="#eae3f7" fill-opacity="0.10">.</text><text x="49.14" y="17.14" fill="#eae3f7" fill-opacity="0.12">.</text><text x="62.86" y="17.14" fill="#eae3f7" fill-opacity="0.10">.</text><text x="1.14" y="19.43" fill="hsl(68 92% 63%)" fill-opacity="0.45">:</text><text x="5.71" y="19.43" fill="hsl(52 92% 63%)" fill-opacity="0.29">.</text><text x="10.29" y="19.43" fill="hsl(64 92% 63%)" fill-opacity="0.58">=</text><text x="14.86" y="19.43" fill="#eae3f7" fill-opacity="0.22">:</text><text x="19.43" y="19.43" fill="#eae3f7" fill-opacity="0.74">#</text><text x="21.71" y="19.43" fill="#eae3f7" fill-opacity="0.91">@</text><text x="24.00" y="19.43" fill="#eae3f7" fill-opacity="0.26">:</text><text x="26.29" y="19.43" fill="#eae3f7" fill-opacity="0.48">i</text><text x="28.57" y="19.43" fill="#eae3f7" fill-opacity="0.37">=</text><text x="30.86" y="19.43" fill="#eae3f7" fill-opacity="0.09">.</text><text x="33.14" y="19.43" fill="#eae3f7" fill-opacity="0.21">:</text><text x="35.43" y="19.43" fill="#eae3f7" fill-opacity="0.32">-</text><text x="37.71" y="19.43" fill="#eae3f7" fill-opacity="0.61">*</text><text x="40.00" y="19.43" fill="#eae3f7" fill-opacity="0.60">*</text><text x="42.29" y="19.43" fill="#eae3f7" fill-opacity="0.30">-</text><text x="46.86" y="19.43" fill="#eae3f7" fill-opacity="0.15">·</text><text x="49.14" y="19.43" fill="#eae3f7" fill-opacity="0.08">.</text><text x="51.43" y="19.43" fill="#eae3f7" fill-opacity="0.20">:</text><text x="56.00" y="19.43" fill="#eae3f7" fill-opacity="0.20">·</text><text x="60.57" y="19.43" fill="#eae3f7" fill-opacity="0.24">:</text><text x="3.43" y="21.71" fill="hsl(62 92% 63%)" fill-opacity="0.40">:</text><text x="8.00" y="21.71" fill="hsl(62 92% 63%)" fill-opacity="0.34">·</text><text x="12.57" y="21.71" fill="hsl(45 92% 63%)" fill-opacity="0.37">·</text><text x="21.71" y="21.71" fill="#eae3f7" fill-opacity="0.09">.</text><text x="26.29" y="21.71" fill="#eae3f7" fill-opacity="1.00">@</text><text x="28.57" y="21.71" fill="hsl(71 92% 63%)" fill-opacity="0.60">=</text><text x="30.86" y="21.71" fill="#eae3f7" fill-opacity="0.29">-</text><text x="33.14" y="21.71" fill="#eae3f7" fill-opacity="0.52">i</text><text x="35.43" y="21.71" fill="#eae3f7" fill-opacity="0.34">=</text><text x="40.00" y="21.71" fill="#eae3f7" fill-opacity="0.50">i</text><text x="42.29" y="21.71" fill="#eae3f7" fill-opacity="0.07">.</text><text x="44.57" y="21.71" fill="#eae3f7" fill-opacity="1.00">@</text><text x="46.86" y="21.71" fill="#eae3f7" fill-opacity="0.52">i</text><text x="49.14" y="21.71" fill="#eae3f7" fill-opacity="0.16">·</text><text x="53.71" y="21.71" fill="#eae3f7" fill-opacity="0.09">.</text><text x="1.14" y="24.00" fill="hsl(38 92% 63%)" fill-opacity="0.42">:</text><text x="5.71" y="24.00" fill="hsl(47 92% 63%)" fill-opacity="0.49">-</text><text x="10.29" y="24.00" fill="hsl(63 92% 63%)" fill-opacity="0.31">.</text><text x="14.86" y="24.00" fill="hsl(51 92% 63%)" fill-opacity="0.43">:</text><text x="19.43" y="24.00" fill="hsl(40 92% 63%)" fill-opacity="0.45">:</text><text x="21.71" y="24.00" fill="hsl(54 92% 63%)" fill-opacity="0.34">·</text><text x="24.00" y="24.00" fill="#eae3f7" fill-opacity="0.29">-</text><text x="26.29" y="24.00" fill="#eae3f7" fill-opacity="0.09">.</text><text x="28.57" y="24.00" fill="#eae3f7" fill-opacity="0.28">-</text><text x="30.86" y="24.00" fill="#eae3f7" fill-opacity="0.81">%</text><text x="33.14" y="24.00" fill="hsl(56 92% 63%)" fill-opacity="0.46">:</text><text x="37.71" y="24.00" fill="#eae3f7" fill-opacity="0.38">=</text><text x="40.00" y="24.00" fill="#eae3f7" fill-opacity="0.67">x</text><text x="42.29" y="24.00" fill="#eae3f7" fill-opacity="0.57">c</text><text x="44.57" y="24.00" fill="#eae3f7" fill-opacity="0.41">+</text><text x="46.86" y="24.00" fill="#eae3f7" fill-opacity="0.50">i</text><text x="49.14" y="24.00" fill="#eae3f7" fill-opacity="0.50">i</text><text x="51.43" y="24.00" fill="#eae3f7" fill-opacity="0.70">x</text><text x="53.71" y="24.00" fill="#eae3f7" fill-opacity="0.43">+</text><text x="56.00" y="24.00" fill="#eae3f7" fill-opacity="0.17">·</text><text x="60.57" y="24.00" fill="#eae3f7" fill-opacity="0.17">·</text><text x="3.43" y="26.29" fill="hsl(1 92% 63%)" fill-opacity="0.29">.</text><text x="8.00" y="26.29" fill="hsl(51 92% 63%)" fill-opacity="0.37">·</text><text x="21.71" y="26.29" fill="hsl(42 92% 63%)" fill-opacity="0.50">-</text><text x="30.86" y="26.29" fill="#eae3f7" fill-opacity="0.66">x</text><text x="35.43" y="26.29" fill="hsl(341 92% 63%)" fill-opacity="0.55">=</text><text x="40.00" y="26.29" fill="#eae3f7" fill-opacity="0.65">*</text><text x="42.29" y="26.29" fill="#eae3f7" fill-opacity="0.71">x</text><text x="44.57" y="26.29" fill="#eae3f7" fill-opacity="0.79">#</text><text x="46.86" y="26.29" fill="#eae3f7" fill-opacity="0.09">.</text><text x="49.14" y="26.29" fill="#eae3f7" fill-opacity="0.41">+</text><text x="53.71" y="26.29" fill="#eae3f7" fill-opacity="0.58">c</text><text x="62.86" y="26.29" fill="#eae3f7" fill-opacity="0.12">.</text><text x="1.14" y="28.57" fill="hsl(3 92% 63%)" fill-opacity="0.44">:</text><text x="3.43" y="28.57" fill="hsl(47 92% 63%)" fill-opacity="0.30">.</text><text x="5.71" y="28.57" fill="hsl(55 92% 63%)" fill-opacity="0.33">·</text><text x="10.29" y="28.57" fill="hsl(46 92% 63%)" fill-opacity="0.40">:</text><text x="12.57" y="28.57" fill="hsl(359 92% 63%)" fill-opacity="0.26">.</text><text x="14.86" y="28.57" fill="hsl(353 92% 63%)" fill-opacity="0.48">-</text><text x="19.43" y="28.57" fill="hsl(55 92% 63%)" fill-opacity="0.73">i</text><text x="21.71" y="28.57" fill="#eae3f7" fill-opacity="0.17">·</text><text x="24.00" y="28.57" fill="#eae3f7" fill-opacity="0.43">+</text><text x="26.29" y="28.57" fill="hsl(65 92% 63%)" fill-opacity="0.50">-</text><text x="28.57" y="28.57" fill="hsl(353 92% 63%)" fill-opacity="1.00">%</text><text x="30.86" y="28.57" fill="hsl(320 92% 63%)" fill-opacity="0.37">·</text><text x="33.14" y="28.57" fill="#eae3f7" fill-opacity="0.24">:</text><text x="35.43" y="28.57" fill="#eae3f7" fill-opacity="0.20">:</text><text x="37.71" y="28.57" fill="#eae3f7" fill-opacity="1.00">@</text><text x="40.00" y="28.57" fill="#eae3f7" fill-opacity="0.73">#</text><text x="42.29" y="28.57" fill="#eae3f7" fill-opacity="0.94">@</text><text x="44.57" y="28.57" fill="#eae3f7" fill-opacity="0.24">:</text><text x="46.86" y="28.57" fill="#eae3f7" fill-opacity="0.70">x</text><text x="49.14" y="28.57" fill="#eae3f7" fill-opacity="0.20">:</text><text x="51.43" y="28.57" fill="#eae3f7" fill-opacity="0.28">-</text><text x="56.00" y="28.57" fill="#eae3f7" fill-opacity="0.16">·</text><text x="60.57" y="28.57" fill="#eae3f7" fill-opacity="0.25">:</text><text x="12.57" y="30.86" fill="hsl(42 92% 63%)" fill-opacity="0.75">i</text><text x="14.86" y="30.86" fill="hsl(62 92% 63%)" fill-opacity="0.33">·</text><text x="17.14" y="30.86" fill="hsl(70 92% 63%)" fill-opacity="0.46">:</text><text x="19.43" y="30.86" fill="hsl(60 92% 63%)" fill-opacity="0.26">.</text><text x="21.71" y="30.86" fill="hsl(348 92% 63%)" fill-opacity="0.92">x</text><text x="24.00" y="30.86" fill="hsl(314 92% 63%)" fill-opacity="0.71">i</text><text x="26.29" y="30.86" fill="#eae3f7" fill-opacity="0.45">+</text><text x="30.86" y="30.86" fill="#eae3f7" fill-opacity="0.39">=</text><text x="33.14" y="30.86" fill="#eae3f7" fill-opacity="0.14">·</text><text x="35.43" y="30.86" fill="#eae3f7" fill-opacity="0.96">@</text><text x="37.71" y="30.86" fill="#eae3f7" fill-opacity="0.41">+</text><text x="40.00" y="30.86" fill="#eae3f7" fill-opacity="0.85">@</text><text x="44.57" y="30.86" fill="#eae3f7" fill-opacity="0.30">-</text><text x="53.71" y="30.86" fill="#eae3f7" fill-opacity="0.08">.</text><text x="58.29" y="30.86" fill="#eae3f7" fill-opacity="0.17">·</text><text x="1.14" y="33.14" fill="hsl(359 92% 63%)" fill-opacity="0.38">·</text><text x="5.71" y="33.14" fill="hsl(342 92% 63%)" fill-opacity="0.39">·</text><text x="10.29" y="33.14" fill="hsl(45 92% 63%)" fill-opacity="0.96">x</text><text x="12.57" y="33.14" fill="hsl(61 92% 63%)" fill-opacity="0.32">·</text><text x="14.86" y="33.14" fill="hsl(59 92% 63%)" fill-opacity="0.61">=</text><text x="17.14" y="33.14" fill="hsl(355 92% 63%)" fill-opacity="0.93">x</text><text x="19.43" y="33.14" fill="hsl(316 92% 63%)" fill-opacity="1.00">@</text><text x="21.71" y="33.14" fill="#eae3f7" fill-opacity="0.45">+</text><text x="24.00" y="33.14" fill="#eae3f7" fill-opacity="0.36">=</text><text x="28.57" y="33.14" fill="#eae3f7" fill-opacity="0.39">=</text><text x="30.86" y="33.14" fill="#eae3f7" fill-opacity="0.53">c</text><text x="33.14" y="33.14" fill="#eae3f7" fill-opacity="0.48">i</text><text x="35.43" y="33.14" fill="#eae3f7" fill-opacity="0.87">@</text><text x="37.71" y="33.14" fill="#eae3f7" fill-opacity="0.63">*</text><text x="42.29" y="33.14" fill="#eae3f7" fill-opacity="0.39">=</text><text x="51.43" y="33.14" fill="#eae3f7" fill-opacity="0.19">·</text><text x="56.00" y="33.14" fill="#eae3f7" fill-opacity="0.25">:</text><text x="60.57" y="33.14" fill="#eae3f7" fill-opacity="0.28">-</text><text x="62.86" y="33.14" fill="#eae3f7" fill-opacity="0.07">.</text><text x="8.00" y="35.43" fill="hsl(338 92% 63%)" fill-opacity="0.41">:</text><text x="12.57" y="35.43" fill="hsl(41 92% 63%)" fill-opacity="0.88">*</text><text x="14.86" y="35.43" fill="hsl(53 92% 63%)" fill-opacity="0.66">+</text><text x="17.14" y="35.43" fill="hsl(44 92% 63%)" fill-opacity="0.98">#</text><text x="21.71" y="35.43" fill="#eae3f7" fill-opacity="0.49">i</text><text x="26.29" y="35.43" fill="#eae3f7" fill-opacity="0.12">.</text><text x="30.86" y="35.43" fill="#eae3f7" fill-opacity="0.39">=</text><text x="35.43" y="35.43" fill="#eae3f7" fill-opacity="1.00">@</text><text x="37.71" y="35.43" fill="#eae3f7" fill-opacity="0.32">-</text><text x="40.00" y="35.43" fill="#eae3f7" fill-opacity="0.34">=</text><text x="44.57" y="35.43" fill="#eae3f7" fill-opacity="0.19">·</text><text x="53.71" y="35.43" fill="#eae3f7" fill-opacity="0.19">·</text><text x="1.14" y="37.71" fill="hsl(357 92% 63%)" fill-opacity="0.52">-</text><text x="5.71" y="37.71" fill="hsl(38 92% 63%)" fill-opacity="0.33">·</text><text x="10.29" y="37.71" fill="hsl(341 92% 63%)" fill-opacity="0.38">·</text><text x="12.57" y="37.71" fill="hsl(333 92% 63%)" fill-opacity="0.30">.</text><text x="14.86" y="37.71" fill="hsl(336 92% 63%)" fill-opacity="0.48">-</text><text x="19.43" y="37.71" fill="hsl(40 92% 63%)" fill-opacity="1.00">@</text><text x="21.71" y="37.71" fill="hsl(42 92% 63%)" fill-opacity="1.00">@</text><text x="24.00" y="37.71" fill="hsl(342 92% 63%)" fill-opacity="0.80">c</text><text x="26.29" y="37.71" fill="hsl(311 92% 63%)" fill-opacity="0.94">x</text><text x="28.57" y="37.71" fill="#eae3f7" fill-opacity="0.48">i</text><text x="30.86" y="37.71" fill="#eae3f7" fill-opacity="0.30">-</text><text x="33.14" y="37.71" fill="#eae3f7" fill-opacity="0.39">=</text><text x="37.71" y="37.71" fill="#eae3f7" fill-opacity="0.30">-</text><text x="40.00" y="37.71" fill="#eae3f7" fill-opacity="0.84">%</text><text x="42.29" y="37.71" fill="#eae3f7" fill-opacity="0.84">%</text><text x="46.86" y="37.71" fill="#eae3f7" fill-opacity="0.42">+</text><text x="49.14" y="37.71" fill="#eae3f7" fill-opacity="0.14">·</text><text x="51.43" y="37.71" fill="#eae3f7" fill-opacity="0.36">=</text><text x="56.00" y="37.71" fill="#eae3f7" fill-opacity="0.27">-</text><text x="60.57" y="37.71" fill="#eae3f7" fill-opacity="0.12">.</text><text x="3.43" y="40.00" fill="hsl(343 92% 63%)" fill-opacity="0.37">·</text><text x="12.57" y="40.00" fill="hsl(355 92% 63%)" fill-opacity="0.41">:</text><text x="17.14" y="40.00" fill="hsl(331 92% 63%)" fill-opacity="0.30">.</text><text x="21.71" y="40.00" fill="hsl(336 92% 63%)" fill-opacity="0.45">:</text><text x="26.29" y="40.00" fill="hsl(0 92% 63%)" fill-opacity="1.00">@</text><text x="28.57" y="40.00" fill="hsl(345 92% 63%)" fill-opacity="0.35">·</text><text x="30.86" y="40.00" fill="hsl(315 92% 63%)" fill-opacity="1.00">@</text><text x="35.43" y="40.00" fill="#eae3f7" fill-opacity="0.44">+</text><text x="37.71" y="40.00" fill="#eae3f7" fill-opacity="0.44">+</text><text x="40.00" y="40.00" fill="#eae3f7" fill-opacity="0.49">i</text><text x="42.29" y="40.00" fill="#eae3f7" fill-opacity="0.18">·</text><text x="44.57" y="40.00" fill="#eae3f7" fill-opacity="0.78">#</text><text x="46.86" y="40.00" fill="#eae3f7" fill-opacity="0.46">i</text><text x="49.14" y="40.00" fill="#eae3f7" fill-opacity="0.25">:</text><text x="53.71" y="40.00" fill="#eae3f7" fill-opacity="0.16">·</text><text x="58.29" y="40.00" fill="#eae3f7" fill-opacity="0.25">:</text><text x="1.14" y="42.29" fill="hsl(343 92% 63%)" fill-opacity="0.30">.</text><text x="5.71" y="42.29" fill="hsl(343 92% 63%)" fill-opacity="0.50">-</text><text x="10.29" y="42.29" fill="hsl(357 92% 63%)" fill-opacity="0.43">:</text><text x="14.86" y="42.29" fill="hsl(344 92% 63%)" fill-opacity="0.51">-</text><text x="19.43" y="42.29" fill="hsl(325 92% 63%)" fill-opacity="0.26">.</text><text x="24.00" y="42.29" fill="hsl(337 92% 63%)" fill-opacity="0.62">+</text><text x="26.29" y="42.29" fill="hsl(349 92% 63%)" fill-opacity="0.30">.</text><text x="28.57" y="42.29" fill="hsl(346 92% 63%)" fill-opacity="0.61">+</text><text x="30.86" y="42.29" fill="hsl(322 92% 63%)" fill-opacity="1.00">@</text><text x="33.14" y="42.29" fill="#eae3f7" fill-opacity="0.36">=</text><text x="35.43" y="42.29" fill="#eae3f7" fill-opacity="0.19">·</text><text x="37.71" y="42.29" fill="#eae3f7" fill-opacity="0.60">*</text><text x="40.00" y="42.29" fill="#eae3f7" fill-opacity="0.51">i</text><text x="42.29" y="42.29" fill="#eae3f7" fill-opacity="0.51">i</text><text x="44.57" y="42.29" fill="#eae3f7" fill-opacity="0.28">-</text><text x="46.86" y="42.29" fill="#eae3f7" fill-opacity="0.55">c</text><text x="51.43" y="42.29" fill="#eae3f7" fill-opacity="0.33">-</text><text x="56.00" y="42.29" fill="#eae3f7" fill-opacity="0.19">·</text><text x="60.57" y="42.29" fill="#eae3f7" fill-opacity="0.27">-</text><text x="3.43" y="44.57" fill="hsl(345 92% 63%)" fill-opacity="0.32">.</text><text x="12.57" y="44.57" fill="hsl(331 92% 63%)" fill-opacity="0.28">.</text><text x="17.14" y="44.57" fill="hsl(322 92% 63%)" fill-opacity="0.29">.</text><text x="21.71" y="44.57" fill="hsl(339 92% 63%)" fill-opacity="0.49">-</text><text x="24.00" y="44.57" fill="hsl(340 92% 63%)" fill-opacity="0.39">·</text><text x="26.29" y="44.57" fill="hsl(321 92% 63%)" fill-opacity="1.00">@</text><text x="35.43" y="44.57" fill="#eae3f7" fill-opacity="0.95">@</text><text x="37.71" y="44.57" fill="#eae3f7" fill-opacity="0.58">c</text><text x="40.00" y="44.57" fill="#eae3f7" fill-opacity="0.15">·</text><text x="42.29" y="44.57" fill="#eae3f7" fill-opacity="0.20">:</text><text x="44.57" y="44.57" fill="#eae3f7" fill-opacity="0.14">·</text><text x="49.14" y="44.57" fill="#eae3f7" fill-opacity="0.11">.</text><text x="1.14" y="46.86" fill="hsl(349 92% 63%)" fill-opacity="0.41">:</text><text x="5.71" y="46.86" fill="hsl(330 92% 63%)" fill-opacity="0.46">:</text><text x="10.29" y="46.86" fill="hsl(319 92% 63%)" fill-opacity="0.57">=</text><text x="14.86" y="46.86" fill="hsl(331 92% 63%)" fill-opacity="0.61">+</text><text x="17.14" y="46.86" fill="hsl(334 92% 63%)" fill-opacity="0.59">=</text><text x="19.43" y="46.86" fill="hsl(320 92% 63%)" fill-opacity="1.00">@</text><text x="24.00" y="46.86" fill="#eae3f7" fill-opacity="0.17">·</text><text x="28.57" y="46.86" fill="#eae3f7" fill-opacity="0.44">+</text><text x="30.86" y="46.86" fill="#eae3f7" fill-opacity="1.00">@</text><text x="33.14" y="46.86" fill="#eae3f7" fill-opacity="0.63">*</text><text x="35.43" y="46.86" fill="#eae3f7" fill-opacity="0.10">.</text><text x="37.71" y="46.86" fill="#eae3f7" fill-opacity="0.32">-</text><text x="42.29" y="46.86" fill="#eae3f7" fill-opacity="0.14">·</text><text x="46.86" y="46.86" fill="#eae3f7" fill-opacity="0.18">·</text><text x="51.43" y="46.86" fill="#eae3f7" fill-opacity="0.28">-</text><text x="56.00" y="46.86" fill="#eae3f7" fill-opacity="0.29">-</text><text x="58.29" y="46.86" fill="#eae3f7" fill-opacity="0.11">.</text><text x="60.57" y="46.86" fill="#eae3f7" fill-opacity="0.25">:</text><text x="3.43" y="49.14" fill="hsl(321 92% 63%)" fill-opacity="0.41">:</text><text x="8.00" y="49.14" fill="hsl(318 92% 63%)" fill-opacity="0.30">.</text><text x="12.57" y="49.14" fill="hsl(328 92% 63%)" fill-opacity="0.71">i</text><text x="14.86" y="49.14" fill="hsl(319 92% 63%)" fill-opacity="0.34">·</text><text x="21.71" y="49.14" fill="#eae3f7" fill-opacity="0.10">.</text><text x="26.29" y="49.14" fill="#eae3f7" fill-opacity="0.66">x</text><text x="28.57" y="49.14" fill="#eae3f7" fill-opacity="0.63">*</text><text x="30.86" y="49.14" fill="#eae3f7" fill-opacity="0.41">+</text><text x="40.00" y="49.14" fill="#eae3f7" fill-opacity="0.17">·</text><text x="49.14" y="49.14" fill="#eae3f7" fill-opacity="0.18">·</text><text x="62.86" y="49.14" fill="#eae3f7" fill-opacity="0.17">·</text><text x="1.14" y="51.43" fill="hsl(333 92% 63%)" fill-opacity="0.40">:</text><text x="5.71" y="51.43" fill="hsl(316 92% 63%)" fill-opacity="0.30">.</text><text x="10.29" y="51.43" fill="hsl(317 92% 63%)" fill-opacity="0.35">·</text><text x="14.86" y="51.43" fill="hsl(321 92% 63%)" fill-opacity="0.65">+</text><text x="19.43" y="51.43" fill="#eae3f7" fill-opacity="0.19">·</text><text x="24.00" y="51.43" fill="#eae3f7" fill-opacity="0.21">:</text><text x="28.57" y="51.43" fill="#eae3f7" fill-opacity="0.72">#</text><text x="30.86" y="51.43" fill="#eae3f7" fill-opacity="0.33">-</text><text x="33.14" y="51.43" fill="#eae3f7" fill-opacity="0.26">:</text><text x="37.71" y="51.43" fill="#eae3f7" fill-opacity="0.23">:</text><text x="42.29" y="51.43" fill="#eae3f7" fill-opacity="0.32">-</text><text x="46.86" y="51.43" fill="#eae3f7" fill-opacity="0.13">·</text><text x="51.43" y="51.43" fill="#eae3f7" fill-opacity="0.33">-</text><text x="56.00" y="51.43" fill="#eae3f7" fill-opacity="0.08">.</text><text x="60.57" y="51.43" fill="#eae3f7" fill-opacity="0.12">.</text><text x="12.57" y="53.71" fill="hsl(312 92% 63%)" fill-opacity="0.33">·</text><text x="17.14" y="53.71" fill="hsl(316 92% 63%)" fill-opacity="0.39">·</text><text x="26.29" y="53.71" fill="#eae3f7" fill-opacity="0.14">·</text><text x="30.86" y="53.71" fill="#eae3f7" fill-opacity="0.13">.</text><text x="35.43" y="53.71" fill="#eae3f7" fill-opacity="0.34">=</text><text x="53.71" y="53.71" fill="#eae3f7" fill-opacity="0.18">·</text><text x="1.14" y="56.00" fill="hsl(326 92% 63%)" fill-opacity="0.44">:</text><text x="5.71" y="56.00" fill="hsl(330 92% 63%)" fill-opacity="0.40">:</text><text x="10.29" y="56.00" fill="hsl(334 92% 63%)" fill-opacity="0.49">-</text><text x="12.57" y="56.00" fill="hsl(327 92% 63%)" fill-opacity="0.26">.</text><text x="14.86" y="56.00" fill="hsl(318 92% 63%)" fill-opacity="0.44">:</text><text x="19.43" y="56.00" fill="hsl(310 92% 63%)" fill-opacity="0.36">·</text><text x="24.00" y="56.00" fill="hsl(315 92% 63%)" fill-opacity="0.48">-</text><text x="28.57" y="56.00" fill="#eae3f7" fill-opacity="0.24">:</text><text x="30.86" y="56.00" fill="#eae3f7" fill-opacity="0.07">.</text><text x="33.14" y="56.00" fill="#eae3f7" fill-opacity="0.08">.</text><text x="37.71" y="56.00" fill="#eae3f7" fill-opacity="0.21">:</text><text x="40.00" y="56.00" fill="#eae3f7" fill-opacity="0.10">.</text><text x="42.29" y="56.00" fill="#eae3f7" fill-opacity="0.24">:</text><text x="46.86" y="56.00" fill="#eae3f7" fill-opacity="0.27">-</text><text x="49.14" y="56.00" fill="#eae3f7" fill-opacity="0.09">.</text><text x="51.43" y="56.00" fill="#eae3f7" fill-opacity="0.22">:</text><text x="56.00" y="56.00" fill="#eae3f7" fill-opacity="0.31">-</text><text x="60.57" y="56.00" fill="#eae3f7" fill-opacity="0.26">:</text><text x="3.43" y="58.29" fill="hsl(324 92% 63%)" fill-opacity="0.35">·</text><text x="17.14" y="58.29" fill="hsl(314 92% 63%)" fill-opacity="0.29">.</text><text x="21.71" y="58.29" fill="hsl(308 92% 63%)" fill-opacity="0.30">.</text><text x="30.86" y="58.29" fill="#eae3f7" fill-opacity="0.07">.</text><text x="49.14" y="58.29" fill="#eae3f7" fill-opacity="0.19">·</text><text x="1.14" y="60.57" fill="hsl(322 92% 63%)" fill-opacity="0.38">·</text><text x="5.71" y="60.57" fill="hsl(329 92% 63%)" fill-opacity="0.53">-</text><text x="14.86" y="60.57" fill="hsl(309 92% 63%)" fill-opacity="0.39">·</text><text x="19.43" y="60.57" fill="hsl(307 92% 63%)" fill-opacity="0.36">·</text><text x="24.00" y="60.57" fill="hsl(308 92% 63%)" fill-opacity="0.33">·</text><text x="28.57" y="60.57" fill="#eae3f7" fill-opacity="0.21">:</text><text x="33.14" y="60.57" fill="#eae3f7" fill-opacity="0.17">·</text><text x="37.71" y="60.57" fill="#eae3f7" fill-opacity="0.11">.</text><text x="42.29" y="60.57" fill="#eae3f7" fill-opacity="0.26">:</text><text x="46.86" y="60.57" fill="#eae3f7" fill-opacity="0.22">:</text><text x="51.43" y="60.57" fill="#eae3f7" fill-opacity="0.19">·</text><text x="56.00" y="60.57" fill="#eae3f7" fill-opacity="0.07">.</text><text x="60.57" y="60.57" fill="#eae3f7" fill-opacity="0.19">·</text><text x="8.00" y="62.86" fill="hsl(309 92% 63%)" fill-opacity="0.34">·</text><text x="17.14" y="62.86" fill="#eae3f7" fill-opacity="0.19">·</text><text x="21.71" y="62.86" fill="#eae3f7" fill-opacity="0.12">.</text><text x="44.57" y="62.86" fill="#eae3f7" fill-opacity="0.11">.</text><text x="53.71" y="62.86" fill="#eae3f7" fill-opacity="0.20">:</text><text x="58.29" y="62.86" fill="#eae3f7" fill-opacity="0.10">.</text><text x="62.86" y="62.86" fill="#eae3f7" fill-opacity="0.11">.</text></g></g></svg>