<svg xmlns="http://www.w3.org/2000/svg" viewBox="0 0 64 64"><clipPath id="t"><rect width="64" height="64" rx="12.8"/></clipPath><g clip-path="url(#t)"><rect width="64" height="64" fill="#040308"/><g font-family="ui-monospace,Consolas,monospace" font-size="2.86" text-anchor="middle" dominant-baseline="central"><text x="1.23" y="1.23" fill="#eae3f7" fill-opacity="0.38">=</text><text x="3.69" y="1.23" fill="#eae3f7" fill-opacity="0.35">=</text><text x="6.15" y="1.23" fill="#eae3f7" fill-opacity="0.71">x</text><text x="8.62" y="1.23" fill="#eae3f7" fill-opacity="0.36">=</text><text x="11.08" y="1.23" fill="#eae3f7" fill-opacity="0.50">i</text><text x="13.54" y="1.23" fill="#eae3f7" fill-opacity="0.26">-</text><text x="16.00" y="1.23" fill="#eae3f7" fill-opacity="0.29">-</text><text x="20.92" y="1.23" fill="#eae3f7" fill-opacity="0.78">#</text><text x="23.38" y="1.23" fill="#eae3f7" fill-opacity="0.60">*</text><text x="25.85" y="1.23" fill="#eae3f7" fill-opacity="0.24">:</text><text x="30.77" y="1.23" fill="#eae3f7" fill-opacity="0.41">+</text><text x="33.23" y="1.23" fill="#eae3f7" fill-opacity="0.42">+</text><text x="35.69" y="1.23" fill="#eae3f7" fill-opacity="0.31">-</text><text x="38.15" y="1.23" fill="#eae3f7" fill-opacity="0.16">·</text><text x="40.62" y="1.23" fill="#eae3f7" fill-opacity="0.39">=</text><text x="43.08" y="1.23" fill="#eae3f7" fill-opacity="0.20">:</text><text x="45.54" y="1.23" fill="#eae3f7" fill-opacity="0.26">:</text><text x="48.00" y="1.23" fill="#eae3f7" fill-opacity="0.24">:</text><text x="50.46" y="1.23" fill="#eae3f7" fill-opacity="0.42">+</text><text x="52.92" y="1.23" fill="#eae3f7" fill-opacity="0.10">.</text><text x="55.38" y="1.23" fill="#eae3f7" fill-opacity="0.26">:</text><text x="57.85" y="1.23" fill="#eae3f7" fill-opacity="0.30">-</text><text x="60.31" y="1.23" fill="#eae3f7" fill-opacity="0.36">=</text><text x="3.69" y="3.69" fill="#eae3f7" fill-opacity="0.22">:</text><text x="8.62" y="3.69" fill="#eae3f7" fill-opacity="0.47">i</text><text x="11.08" y="3.69" fill="#eae3f7" fill-opacity="0.34">=</text><text x="13.54" y="3.69" fill="#eae3f7" fill-opacity="0.44">+</text><text x="16.00" y="3.69" fill="#eae3f7" fill-opacity="0.10">.</text><text x="18.46" y="3.69" fill="#eae3f7" fill-opacity="0.23">:</text><text x="23.38" y="3.69" fill="#eae3f7" fill-opacity="0.90">@</text><text x="25.85" y="3.69" fill="#eae3f7" fill-opacity="0.67">x</text><text x="28.31" y="3.69" fill="#eae3f7" fill-opacity="0.57">c</text><text x="30.77" y="3.69" fill="#eae3f7" fill-opacity="0.07">.</text><text x="33.23" y="3.69" fill="#eae3f7" fill-opacity="0.29">-</text><text x="35.69" y="3.69" fill="#eae3f7" fill-opacity="0.16">·</text><text x="38.15" y="3.69" fill="#eae3f7" fill-opacity="0.15">·</text><text x="43.08" y="3.69" fill="#eae3f7" fill-opacity="0.28">-</text><text x="45.54" y="3.69" fill="#eae3f7" fill-opacity="0.09">.</text><text x="48.00" y="3.69" fill="#eae3f7" fill-opacity="0.21">:</text><text x="50.46" y="3.69" fill="#eae3f7" fill-opacity="0.17">·</text><text x="52.92" y="3.69" fill="#eae3f7" fill-opacity="0.28">-</text><text x="57.85" y="3.69" fill="#eae3f7" fill-opacity="0.13">.</text><text x="60.31" y="3.69" fill="#eae3f7" fill-opacity="0.12">.</text><text x="62.77" y="3.69" fill="#eae3f7" fill-opacity="0.29">-</text><text x="1.23" y="6.15" fill="hsl(66 92% 63%)" fill-opacity="0.55">=</text><text x="6.15" y="6.15" fill="#eae3f7" fill-opacity="0.25">:</text><text x="8.62" y="6.15" fill="#eae3f7" fill-opacity="0.14">·</text><text x="11.08" y="6.15" fill="#eae3f7" fill-opacity="0.23">:</text><text x="13.54" y="6.15" fill="#eae3f7" fill-opacity="0.33">=</text><text x="16.00" y="6.15" fill="#eae3f7" fill-opacity="0.69">x</text><text x="18.46" y="6.15" fill="#eae3f7" fill-opacity="0.36">=</text><text x="20.92" y="6.15" fill="#eae3f7" fill-opacity="0.40">+</text><text x="23.38" y="6.15" fill="#eae3f7" fill-opacity="0.26">:</text><text x="25.85" y="6.15" fill="#eae3f7" fill-opacity="0.31">-</text><text x="28.31" y="6.15" fill="#eae3f7" fill-opacity="0.40">+</text><text x="30.77" y="6.15" fill="#eae3f7" fill-opacity="1.00">@</text><text x="33.23" y="6.15" fill="#eae3f7" fill-opacity="0.75">#</text><text x="35.69" y="6.15" fill="#eae3f7" fill-opacity="0.75">#</text><text x="38.15" y="6.15" fill="#eae3f7" fill-opacity="0.19">·</text><text x="40.62" y="6.15" fill="#eae3f7" fill-opacity="0.39">=</text><text x="43.08" y="6.15" fill="#eae3f7" fill-opacity="0.14">·</text><text x="45.54" y="6.15" fill="#eae3f7" fill-opacity="0.44">+</text><text x="48.00" y="6.15" fill="#eae3f7" fill-opacity="0.56">c</text><text x="50.46" y="6.15" fill="#eae3f7" fill-opacity="0.24">:</text><text x="52.92" y="6.15" fill="#eae3f7" fill-opacity="0.15">·</text><text x="55.38" y="6.15" fill="#eae3f7" fill-opacity="0.58">c</text><text x="57.85" y="6.15" fill="#eae3f7" fill-opacity="0.25">:</text><text x="60.31" y="6.15" fill="#eae3f7" fill-opacity="0.28">-</text><text x="3.69" y="8.62" fill="hsl(59 92% 63%)" fill-opacity="0.65">+</text><text x="8.62" y="8.62" fill="#eae3f7" fill-opacity="0.17">·</text><text x="13.54" y="8.62" fill="#eae3f7" fill-opacity="0.09">.</text><text x="16.00" y="8.62" fill="#eae3f7" fill-opacity="0.07">.</text><text x="18.46" y="8.62" fill="#eae3f7" fill-opacity="0.55">c</text><text x="20.92" y="8.62" fill="#eae3f7" fill-opacity="0.39">=</text><text x="23.38" y="8.62" fill="#eae3f7" fill-opacity="0.41">+</text><text x="25.85" y="8.62" fill="#eae3f7" fill-opacity="0.12">.</text><text x="28.31" y="8.62" fill="#eae3f7" fill-opacity="0.32">-</text><text x="33.23" y="8.62" fill="#eae3f7" fill-opacity="0.99">@</text><text x="35.69" y="8.62" fill="#eae3f7" fill-opacity="0.82">%</text><text x="38.15" y="8.62" fill="#eae3f7" fill-opacity="0.75">#</text><text x="40.62" y="8.62" fill="#eae3f7" fill-opacity="0.32">-</text><text x="43.08" y="8.62" fill="#eae3f7" fill-opacity="0.51">i</text><text x="45.54" y="8.62" fill="#eae3f7" fill-opacity="0.25">:</text><text x="48.00" y="8.62" fill="#eae3f7" fill-opacity="0.31">-</text><text x="50.46" y="8.62" fill="#eae3f7" fill-opacity="0.64">*</text><text x="52.92" y="8.62" fill="#eae3f7" fill-opacity="0.90">@</text><text x="57.85" y="8.62" fill="#eae3f7" fill-opacity="0.26">-</text><text x="62.77" y="8.62" fill="#eae3f7" fill-opacity="0.08">.</text><text x="1.23" y="11.08" fill="hsl(55 92% 63%)" fill-opacity="0.72">i</text><text x="3.69" y="11.08" fill="hsl(60 92% 63%)" fill-opacity="0.47">-</text><text x="6.15" y="11.08" fill="hsl(70 92% 63%)" fill-opacity="0.55">=</text><text x="11.08" y="11.08" fill="#eae3f7" fill-opacity="0.28">-</text><text x="13.54" y="11.08" fill="#eae3f7" fill-opacity="0.11">.</text><text x="16.00" y="11.08" fill="hsl(68 92% 63%)" fill-opacity="0.84">*</text><text x="18.46" y="11.08" fill="hsl(70 92% 63%)" fill-opacity="0.96">x</text><text x="20.92" y="11.08" fill="#eae3f7" fill-opacity="0.61">*</text><text x="23.38" y="11.08" fill="#eae3f7" fill-opacity="0.10">.</text><text x="25.85" y="11.08" fill="#eae3f7" fill-opacity="0.33">=</text><text x="28.31" y="11.08" fill="#eae3f7" fill-opacity="0.07">.</text><text x="30.77" y="11.08" fill="#eae3f7" fill-opacity="1.00">@</text><text x="33.23" y="11.08" fill="#eae3f7" fill-opacity="1.00">@</text><text x="35.69" y="11.08" fill="#eae3f7" fill-opacity="0.63">*</text><text x="38.15" y="11.08" fill="#eae3f7" fill-opacity="0.45">+</text><text x="40.62" y="11.08" fill="#eae3f7" fill-opacity="0.65">*</text><text x="43.08" y="11.08" fill="#eae3f7" fill-opacity="0.48">i</text><text x="45.54" y="11.08" fill="#eae3f7" fill-opacity="0.43">+</text><text x="48.00" y="11.08" fill="#eae3f7" fill-opacity="1.00">@</text><text x="50.46" y="11.08" fill="#eae3f7" fill-opacity="1.00">@</text><text x="52.92" y="11.08" fill="#eae3f7" fill-opacity="0.74">#</text><text x="55.38" y="11.08" fill="#eae3f7" fill-opacity="0.25">:</text><text x="57.85" y="11.08" fill="#eae3f7" fill-opacity="0.18">·</text><text x="60.31" y="11.08" fill="#eae3f7" fill-opacity="0.39">=</text><text x="62.77" y="11.08" fill="#eae3f7" fill-opacity="0.09">.</text><text x="3.69" y="13.54" fill="#eae3f7" fill-opacity="0.24">:</text><text x="8.62" y="13.54" fill="hsl(67 92% 63%)" fill-opacity="0.76">c</text><text x="11.08" y="13.54" fill="hsl(63 92% 63%)" fill-opacity="0.85">*</text><text x="13.54" y="13.54" fill="#eae3f7" fill-opacity="0.64">*</text><text x="16.00" y="13.54" fill="#eae3f7" fill-opacity="0.11">.</text><text x="18.46" y="13.54" fill="#eae3f7" fill-opacity="0.17">·</text><text x="20.92" y="13.54" fill="#eae3f7" fill-opacity="0.10">.</text><text x="23.38" y="13.54" fill="#eae3f7" fill-opacity="0.82">%</text><text x="25.85" y="13.54" fill="#eae3f7" fill-opacity="1.00">@</text><text x="28.31" y="13.54" fill="#eae3f7" fill-opacity="0.67">x</text><text x="30.77" y="13.54" fill="#eae3f7" fill-opacity="0.35">=</text><text x="33.23" y="13.54" fill="#eae3f7" fill-opacity="0.46">+</text><text x="35.69" y="13.54" fill="#eae3f7" fill-opacity="0.22">:</text><text x="38.15" y="13.54" fill="#eae3f7" fill-opacity="0.33">=</text><text x="40.62" y="13.54" fill="#eae3f7" fill-opacity="1.00">@</text><text x="43.08" y="13.54" fill="#eae3f7" fill-opacity="0.56">c</text><text x="45.54" y="13.54" fill="#eae3f7" fill-opacity="0.36">=</text><text x="48.00" y="13.54" fill="#eae3f7" fill-opacity="0.42">+</text><text x="52.92" y="13.54" fill="#eae3f7" fill-opacity="0.28">-</text><text x="57.85" y="13.54" fill="#eae3f7" fill-opacity="0.57">c</text><text x="60.31" y="13.54" fill="#eae3f7" fill-opacity="0.33">=</text><text x="62.77" y="13.54" fill="#eae3f7" fill-opacity="0.24">:</text><text x="1.23" y="16.00" fill="hsl(69 92% 63%)" fill-opacity="0.50">-</text><text x="3.69" y="16.00" fill="hsl(61 92% 63%)" fill-opacity="0.51">-</text><text x="6.15" y="16.00" fill="hsl(59 92% 63%)" fill-opacity="1.00">@</text><text x="8.62" y="16.00" fill="hsl(70 92% 63%)" fill-opacity="0.88">*</text><text x="11.08" y="16.00" fill="#eae3f7" fill-opacity="0.41">+</text><text x="16.00" y="16.00" fill="#eae3f7" fill-opacity="0.37">=</text><text x="18.46" y="16.00" fill="#eae3f7" fill-opacity="1.00">@</text><text x="20.92" y="16.00" fill="#eae3f7" fill-opacity="1.00">@</text><text x="23.38" y="16.00" fill="#eae3f7" fill-opacity="0.50">i</text><text x="25.85" y="16.00" fill="#eae3f7" fill-opacity="0.71">x</text><text x="28.31" y="16.00" fill="#eae3f7" fill-opacity="0.24">:</text><text x="30.77" y="16.00" fill="#eae3f7" fill-opacity="0.37">=</text><text x="33.23" y="16.00" fill="#eae3f7" fill-opacity="0.38">=</text><text x="35.69" y="16.00" fill="#eae3f7" fill-opacity="1.00">@</text><text x="38.15" y="16.00" fill="#eae3f7" fill-opacity="0.36">=</text><text x="40.62" y="16.00" fill="#eae3f7" fill-opacity="0.59">*</text><text x="43.08" y="16.00" fill="#eae3f7" fill-opacity="0.37">=</text><text x="45.54" y="16.00" fill="#eae3f7" fill-opacity="0.28">-</text><text x="48.00" y="16.00" fill="#eae3f7" fill-opacity="0.07">.</text><text x="50.46" y="16.00" fill="#eae3f7" fill-opacity="0.59">c</text><text x="52.92" y="16.00" fill="#eae3f7" fill-opacity="0.27">-</text><text x="55.38" y="16.00" fill="#eae3f7" fill-opacity="0.58">c</text><text x="57.85" y="16.00" fill="#eae3f7" fill-opacity="0.25">:</text><text x="60.31" y="16.00" fill="#eae3f7" fill-opacity="0.21">:</text><text x="3.69" y="18.46" fill="hsl(55 92% 63%)" fill-opacity="0.73">i</text><text x="6.15" y="18.46" fill="hsl(53 92% 63%)" fill-opacity="0.99">#</text><text x="8.62" y="18.46" fill="hsl(66 92% 63%)" fill-opacity="1.00">%</text><text x="13.54" y="18.46" fill="#eae3f7" fill-opacity="0.22">:</text><text x="16.00" y="18.46" fill="#eae3f7" fill-opacity="0.26">:</text><text x="18.46" y="18.46" fill="#eae3f7" fill-opacity="1.00">@</text><text x="20.92" y="18.46" fill="#eae3f7" fill-opacity="0.99">@</text><text x="23.38" y="18.46" fill="#eae3f7" fill-opacity="0.57">c</text><text x="25.85" y="18.46" fill="#eae3f7" fill-opacity="0.52">i</text><text x="28.31" y="18.46" fill="#eae3f7" fill-opacity="0.28">-</text><text x="30.77" y="18.46" fill="#eae3f7" fill-opacity="0.12">.</text><text x="33.23" y="18.46" fill="#eae3f7" fill-opacity="1.00">@</text><text x="35.69" y="18.46" fill="#eae3f7" fill-opacity="0.30">-</text><text x="38.15" y="18.46" fill="#eae3f7" fill-opacity="1.00">@</text><text x="40.62" y="18.46" fill="#eae3f7" fill-opacity="0.13">.</text><text x="43.08" y="18.46" fill="#eae3f7" fill-opacity="0.77">#</text><text x="45.54" y="18.46" fill="#eae3f7" fill-opacity="0.08">.</text><text x="48.00" y="18.46" fill="#eae3f7" fill-opacity="0.36">=</text><text x="50.46" y="18.46" fill="#eae3f7" fill-opacity="0.28">-</text><text x="52.92" y="18.46" fill="#eae3f7" fill-opacity="0.18">·</text><text x="57.85" y="18.46" fill="#eae3f7" fill-opacity="0.34">=</text><text x="62.77" y="18.46" fill="#eae3f7" fill-opacity="0.18">·</text><text x="1.23" y="20.92" fill="hsl(64 92% 63%)" fill-opacity="0.59">=</text><text x="3.69" y="20.92" fill="hsl(67 92% 63%)" fill-opacity="0.27">.</text><text x="6.15" y="20.92" fill="hsl(62 92% 63%)" fill-opacity="0.53">-</text><text x="8.62" y="20.92" fill="hsl(52 92% 63%)" fill-opacity="0.49">-</text><text x="11.08" y="20.92" fill="hsl(46 92% 63%)" fill-opacity="0.88">*</text><text x="13.54" y="20.92" fill="hsl(56 92% 63%)" fill-opacity="1.00">@</text><text x="16.00" y="20.92" fill="#eae3f7" fill-opacity="0.52">i</text><text x="18.46" y="20.92" fill="#eae3f7" fill-opacity="0.16">·</text><text x="20.92" y="20.92" fill="#eae3f7" fill-opacity="0.76">#</text><text x="23.38" y="20.92" fill="#eae3f7" fill-opacity="1.00">@</text><text x="25.85" y="20.92" fill="#eae3f7" fill-opacity="1.00">@</text><text x="28.31" y="20.92" fill="#eae3f7" fill-opacity="0.38">=</text><text x="30.77" y="20.92" fill="#eae3f7" fill-opacity="1.00">@</text><text x="33.23" y="20.92" fill="#eae3f7" fill-opacity="0.41">+</text><text x="35.69" y="20.92" fill="#eae3f7" fill-opacity="0.60">*</text><text x="38.15" y="20.92" fill="#eae3f7" fill-opacity="1.00">@</text><text x="40.62" y="20.92" fill="#eae3f7" fill-opacity="0.83">%</text><text x="43.08" y="20.92" fill="#eae3f7" fill-opacity="1.00">@</text><text x="45.54" y="20.92" fill="#eae3f7" fill-opacity="1.00">@</text><text x="48.00" y="20.92" fill="#eae3f7" fill-opacity="0.30">-</text><text x="50.46" y="20.92" fill="#eae3f7" fill-opacity="0.77">#</text><text x="52.92" y="20.92" fill="#eae3f7" fill-opacity="0.39">=</text><text x="55.38" y="20.92" fill="#eae3f7" fill-opacity="0.59">c</text><text x="57.85" y="20.92" fill="#eae3f7" fill-opacity="0.13">·</text><text x="60.31" y="20.92" fill="#eae3f7" fill-opacity="0.29">-</text><text x="62.77" y="20.92" fill="#eae3f7" fill-opacity="0.40">+</text><text x="3.69" y="23.38" fill="hsl(44 92% 63%)" fill-opacity="0.82">c</text><text x="8.62" y="23.38" fill="hsl(63 92% 63%)" fill-opacity="0.43">:</text><text x="13.54" y="23.38" fill="hsl(54 92% 63%)" fill-opacity="0.50">-</text><text x="18.46" y="23.38" fill="hsl(42 92% 63%)" fill-opacity="0.71">i</text><text x="20.92" y="23.38" fill="hsl(58 92% 63%)" fill-opacity="1.00">@</text><text x="23.38" y="23.38" fill="#eae3f7" fill-opacity="0.34">=</text><text x="28.31" y="23.38" fill="#eae3f7" fill-opacity="1.00">@</text><text x="30.77" y="23.38" fill="#eae3f7" fill-opacity="1.00">@</text><text x="33.23" y="23.38" fill="hsl(54 92% 63%)" fill-opacity="0.93">x</text><text x="38.15" y="23.38" fill="#eae3f7" fill-opacity="1.00">@</text><text x="40.62" y="23.38" fill="#eae3f7" fill-opacity="0.74">#</text><text x="43.08" y="23.38" fill="#eae3f7" fill-opacity="1.00">@</text><text x="45.54" y="23.38" fill="#eae3f7" fill-opacity="0.29">-</text><text x="48.00" y="23.38" fill="#eae3f7" fill-opacity="1.00">@</text><text x="50.46" y="23.38" fill="#eae3f7" fill-opacity="0.92">@</text><text x="52.92" y="23.38" fill="#eae3f7" fill-opacity="1.00">@</text><text x="55.38" y="23.38" fill="#eae3f7" fill-opacity="0.15">·</text><text x="57.85" y="23.38" fill="#eae3f7" fill-opacity="0.66">x</text><text x="60.31" y="23.38" fill="#eae3f7" fill-opacity="0.42">+</text><text x="62.77" y="23.38" fill="#eae3f7" fill-opacity="0.17">·</text><text x="1.23" y="25.85" fill="hsl(38 92% 63%)" fill-opacity="0.45">:</text><text x="6.15" y="25.85" fill="hsl(42 92% 63%)" fill-opacity="0.87">*</text><text x="8.62" y="25.85" fill="hsl(53 92% 63%)" fill-opacity="0.38">·</text><text x="11.08" y="25.85" fill="hsl(60 92% 63%)" fill-opacity="0.55">=</text><text x="13.54" y="25.85" fill="hsl(57 92% 63%)" fill-opacity="0.33">·</text><text x="16.00" y="25.85" fill="hsl(46 92% 63%)" fill-opacity="0.61">+</text><text x="18.46" y="25.85" fill="hsl(2 92% 63%)" fill-opacity="0.48">-</text><text x="20.92" y="25.85" fill="hsl(37 92% 63%)" fill-opacity="0.69">i</text><text x="23.38" y="25.85" fill="hsl(55 92% 63%)" fill-opacity="1.00">@</text><text x="25.85" y="25.85" fill="#eae3f7" fill-opacity="0.61">*</text><text x="28.31" y="25.85" fill="#eae3f7" fill-opacity="0.46">+</text><text x="30.77" y="25.85" fill="#eae3f7" fill-opacity="1.00">@</text><text x="33.23" y="25.85" fill="hsl(52 92% 63%)" fill-opacity="0.60">=</text><text x="35.69" y="25.85" fill="#eae3f7" fill-opacity="0.54">c</text><text x="40.62" y="25.85" fill="#eae3f7" fill-opacity="1.00">@</text><text x="43.08" y="25.85" fill="#eae3f7" fill-opacity="1.00">@</text><text x="45.54" y="25.85" fill="#eae3f7" fill-opacity="1.00">@</text><text x="48.00" y="25.85" fill="#eae3f7" fill-opacity="1.00">@</text><text x="50.46" y="25.85" fill="#eae3f7" fill-opacity="0.72">x</text><text x="52.92" y="25.85" fill="#eae3f7" fill-opacity="0.38">=</text><text x="55.38" y="25.85" fill="#eae3f7" fill-opacity="1.00">@</text><text x="57.85" y="25.85" fill="#eae3f7" fill-opacity="0.17">·</text><text x="60.31" y="25.85" fill="#eae3f7" fill-opacity="0.59">*</text><text x="62.77" y="25.85" fill="#eae3f7" fill-opacity="0.21">:</text><text x="3.69" y="28.31" fill="hsl(45 92% 63%)" fill-opacity="0.64">+</text><text x="8.62" y="28.31" fill="hsl(55 92% 63%)" fill-opacity="0.44">:</text><text x="13.54" y="28.31" fill="hsl(359 92% 63%)" fill-opacity="0.63">+</text><text x="16.00" y="28.31" fill="hsl(354 92% 63%)" fill-opacity="0.34">·</text><text x="18.46" y="28.31" fill="hsl(40 92% 63%)" fill-opacity="1.00">@</text><text x="20.92" y="28.31" fill="hsl(63 92% 63%)" fill-opacity="0.68">+</text><text x="23.38" y="28.31" fill="#eae3f7" fill-opacity="0.45">+</text><text x="25.85" y="28.31" fill="#eae3f7" fill-opacity="0.61">*</text><text x="28.31" y="28.31" fill="hsl(48 92% 63%)" fill-opacity="0.81">c</text><text x="30.77" y="28.31" fill="hsl(330 92% 63%)" fill-opacity="0.52">-</text><text x="35.69" y="28.31" fill="#eae3f7" fill-opacity="0.87">@</text><text x="38.15" y="28.31" fill="#eae3f7" fill-opacity="1.00">@</text><text x="40.62" y="28.31" fill="#eae3f7" fill-opacity="1.00">@</text><text x="43.08" y="28.31" fill="#eae3f7" fill-opacity="1.00">@</text><text x="45.54" y="28.31" fill="#eae3f7" fill-opacity="0.44">+</text><text x="48.00" y="28.31" fill="#eae3f7" fill-opacity="0.74">#</text><text x="50.46" y="28.31" fill="#eae3f7" fill-opacity="0.59">*</text><text x="52.92" y="28.31" fill="#eae3f7" fill-opacity="0.45">+</text><text x="57.85" y="28.31" fill="#eae3f7" fill-opacity="0.33">=</text><text x="62.77" y="28.31" fill="#eae3f7" fill-opacity="0.35">=</text><text x="1.23" y="30.77" fill="hsl(52 92% 63%)" fill-opacity="0.54">=</text><text x="3.69" y="30.77" fill="hsl(44 92% 63%)" fill-opacity="0.34">·</text><text x="6.15" y="30.77" fill="hsl(356 92% 63%)" fill-opacity="0.86">*</text><text x="8.62" y="30.77" fill="hsl(348 92% 63%)" fill-opacity="0.87">*</text><text x="11.08" y="30.77" fill="hsl(354 92% 63%)" fill-opacity="0.74">i</text><text x="13.54" y="30.77" fill="hsl(49 92% 63%)" fill-opacity="1.00">@</text><text x="16.00" y="30.77" fill="hsl(67 92% 63%)" fill-opacity="0.82">*</text><text x="18.46" y="30.77" fill="hsl(68 92% 63%)" fill-opacity="0.62">+</text><text x="20.92" y="30.77" fill="hsl(43 92% 63%)" fill-opacity="1.00">@</text><text x="23.38" y="30.77" fill="hsl(323 92% 63%)" fill-opacity="1.00">%</text><text x="25.85" y="30.77" fill="#eae3f7" fill-opacity="1.00">@</text><text x="30.77" y="30.77" fill="#eae3f7" fill-opacity="0.91">@</text><text x="33.23" y="30.77" fill="#eae3f7" fill-opacity="0.63">*</text><text x="35.69" y="30.77" fill="#eae3f7" fill-opacity="1.00">@</text><text x="38.15" y="30.77" fill="#eae3f7" fill-opacity="0.87">@</text><text x="40.62" y="30.77" fill="#eae3f7" fill-opacity="1.00">@</text><text x="43.08" y="30.77" fill="#eae3f7" fill-opacity="0.44">+</text><text x="45.54" y="30.77" fill="#eae3f7" fill-opacity="1.00">@</text><text x="48.00" y="30.77" fill="#eae3f7" fill-opacity="0.27">-</text><text x="50.46" y="30.77" fill="#eae3f7" fill-opacity="0.34">=</text><text x="52.92" y="30.77" fill="#eae3f7" fill-opacity="0.22">:</text><text x="55.38" y="30.77" fill="#eae3f7" fill-opacity="0.65">*</text><text x="57.85" y="30.77" fill="#eae3f7" fill-opacity="0.18">·</text><text x="60.31" y="30.77" fill="#eae3f7" fill-opacity="0.32">-</text><text x="62.77" y="30.77" fill="#eae3f7" fill-opacity="0.39">=</text><text x="1.23" y="33.23" fill="hsl(358 92% 63%)" fill-opacity="0.41">:</text><text x="3.69" y="33.23" fill="hsl(345 92% 63%)" fill-opacity="1.00">@</text><text x="6.15" y="33.23" fill="hsl(343 92% 63%)" fill-opacity="0.97">#</text><text x="8.62" y="33.23" fill="hsl(356 92% 63%)" fill-opacity="0.76">c</text><text x="11.08" y="33.23" fill="hsl(52 92% 63%)" fill-opacity="1.00">@</text><text x="13.54" y="33.23" fill="hsl(62 92% 63%)" fill-opacity="0.88">*</text><text x="16.00" y="33.23" fill="hsl(47 92% 63%)" fill-opacity="0.87">*</text><text x="18.46" y="33.23" fill="hsl(328 92% 63%)" fill-opacity="1.00">#</text><text x="20.92" y="33.23" fill="#eae3f7" fill-opacity="1.00">@</text><text x="23.38" y="33.23" fill="#eae3f7" fill-opacity="0.89">@</text><text x="28.31" y="33.23" fill="#eae3f7" fill-opacity="0.58">c</text><text x="30.77" y="33.23" fill="#eae3f7" fill-opacity="1.00">@</text><text x="33.23" y="33.23" fill="#eae3f7" fill-opacity="1.00">@</text><text x="35.69" y="33.23" fill="#eae3f7" fill-opacity="1.00">@</text><text x="38.15" y="33.23" fill="#eae3f7" fill-opacity="1.00">@</text><text x="40.62" y="33.23" fill="#eae3f7" fill-opacity="0.24">:</text><text x="43.08" y="33.23" fill="#eae3f7" fill-opacity="1.00">@</text><text x="45.54" y="33.23" fill="#eae3f7" fill-opacity="0.12">.</text><text x="48.00" y="33.23" fill="#eae3f7" fill-opacity="0.40">+</text><text x="50.46" y="33.23" fill="#eae3f7" fill-opacity="0.29">-</text><text x="52.92" y="33.23" fill="#eae3f7" fill-opacity="0.53">c</text><text x="57.85" y="33.23" fill="#eae3f7" fill-opacity="0.08">.</text><text x="60.31" y="33.23" fill="#eae3f7" fill-opacity="0.27">-</text><text x="62.77" y="33.23" fill="#eae3f7" fill-opacity="0.39">=</text><text x="1.23" y="35.69" fill="hsl(40 92% 63%)" fill-opacity="0.55">=</text><text x="3.69" y="35.69" fill="hsl(353 92% 63%)" fill-opacity="0.66">+</text><text x="6.15" y="35.69" fill="hsl(340 92% 63%)" fill-opacity="0.98">#</text><text x="8.62" y="35.69" fill="hsl(337 92% 63%)" fill-opacity="0.97">#</text><text x="11.08" y="35.69" fill="hsl(349 92% 63%)" fill-opacity="0.92">x</text><text x="13.54" y="35.69" fill="hsl(43 92% 63%)" fill-opacity="1.00">@</text><text x="16.00" y="35.69" fill="hsl(52 92% 63%)" fill-opacity="1.00">@</text><text x="18.46" y="35.69" fill="hsl(358 92% 63%)" fill-opacity="1.00">@</text><text x="20.92" y="35.69" fill="hsl(317 92% 63%)" fill-opacity="1.00">@</text><text x="23.38" y="35.69" fill="#eae3f7" fill-opacity="0.49">i</text><text x="25.85" y="35.69" fill="#eae3f7" fill-opacity="0.74">#</text><text x="28.31" y="35.69" fill="#eae3f7" fill-opacity="0.11">.</text><text x="30.77" y="35.69" fill="#eae3f7" fill-opacity="1.00">@</text><text x="33.23" y="35.69" fill="#eae3f7" fill-opacity="0.80">%</text><text x="35.69" y="35.69" fill="#eae3f7" fill-opacity="1.00">@</text><text x="38.15" y="35.69" fill="#eae3f7" fill-opacity="1.00">@</text><text x="40.62" y="35.69" fill="#eae3f7" fill-opacity="1.00">@</text><text x="43.08" y="35.69" fill="#eae3f7" fill-opacity="0.30">-</text><text x="45.54" y="35.69" fill="#eae3f7" fill-opacity="1.00">@</text><text x="48.00" y="35.69" fill="#eae3f7" fill-opacity="0.49">i</text><text x="50.46" y="35.69" fill="#eae3f7" fill-opacity="0.74">#</text><text x="52.92" y="35.69" fill="#eae3f7" fill-opacity="0.37">=</text><text x="55.38" y="35.69" fill="#eae3f7" fill-opacity="0.66">x</text><text x="57.85" y="35.69" fill="#eae3f7" fill-opacity="0.19">·</text><text x="60.31" y="35.69" fill="#eae3f7" fill-opacity="0.29">-</text><text x="62.77" y="35.69" fill="#eae3f7" fill-opacity="0.20">:</text><text x="3.69" y="38.15" fill="hsl(2 92% 63%)" fill-opacity="0.61">+</text><text x="6.15" y="38.15" fill="hsl(39 92% 63%)" fill-opacity="0.39">·</text><text x="8.62" y="38.15" fill="hsl(357 92% 63%)" fill-opacity="0.92">x</text><text x="11.08" y="38.15" fill="hsl(342 92% 63%)" fill-opacity="0.43">:</text><text x="13.54" y="38.15" fill="hsl(333 92% 63%)" fill-opacity="0.38">·</text><text x="16.00" y="38.15" fill="hsl(334 92% 63%)" fill-opacity="0.83">*</text><text x="18.46" y="38.15" fill="hsl(348 92% 63%)" fill-opacity="0.71">i</text><text x="20.92" y="38.15" fill="hsl(39 92% 63%)" fill-opacity="1.00">@</text><text x="23.38" y="38.15" fill="hsl(37 92% 63%)" fill-opacity="1.00">@</text><text x="25.85" y="38.15" fill="hsl(330 92% 63%)" fill-opacity="0.82">c</text><text x="28.31" y="38.15" fill="#eae3f7" fill-opacity="0.71">x</text><text x="30.77" y="38.15" fill="#eae3f7" fill-opacity="0.49">i</text><text x="33.23" y="38.15" fill="#eae3f7" fill-opacity="0.64">*</text><text x="38.15" y="38.15" fill="#eae3f7" fill-opacity="0.51">i</text><text x="40.62" y="38.15" fill="#eae3f7" fill-opacity="1.00">@</text><text x="43.08" y="38.15" fill="#eae3f7" fill-opacity="1.00">@</text><text x="45.54" y="38.15" fill="#eae3f7" fill-opacity="1.00">@</text><text x="48.00" y="38.15" fill="#eae3f7" fill-opacity="0.98">@</text><text x="50.46" y="38.15" fill="#eae3f7" fill-opacity="0.11">.</text><text x="52.92" y="38.15" fill="#eae3f7" fill-opacity="1.00">@</text><text x="55.38" y="38.15" fill="#eae3f7" fill-opacity="0.53">c</text><text x="57.85" y="38.15" fill="#eae3f7" fill-opacity="0.76">#</text><text x="60.31" y="38.15" fill="#eae3f7" fill-opacity="0.25">:</text><text x="62.77" y="38.15" fill="#eae3f7" fill-opacity="0.32">-</text><text x="1.23" y="40.62" fill="hsl(344 92% 63%)" fill-opacity="0.82">*</text><text x="3.69" y="40.62" fill="hsl(342 92% 63%)" fill-opacity="0.54">=</text><text x="6.15" y="40.62" fill="hsl(347 92% 63%)" fill-opacity="0.53">-</text><text x="8.62" y="40.62" fill="hsl(357 92% 63%)" fill-opacity="0.62">+</text><text x="11.08" y="40.62" fill="hsl(1 92% 63%)" fill-opacity="0.93">x</text><text x="13.54" y="40.62" fill="hsl(353 92% 63%)" fill-opacity="0.78">c</text><text x="16.00" y="40.62" fill="hsl(339 92% 63%)" fill-opacity="0.64">+</text><text x="18.46" y="40.62" fill="hsl(329 92% 63%)" fill-opacity="0.37">·</text><text x="20.92" y="40.62" fill="hsl(329 92% 63%)" fill-opacity="0.63">+</text><text x="23.38" y="40.62" fill="hsl(340 92% 63%)" fill-opacity="1.00">@</text><text x="25.85" y="40.62" fill="hsl(355 92% 63%)" fill-opacity="1.00">@</text><text x="28.31" y="40.62" fill="hsl(353 92% 63%)" fill-opacity="1.00">@</text><text x="30.77" y="40.62" fill="hsl(324 92% 63%)" fill-opacity="1.00">@</text><text x="33.23" y="40.62" fill="#eae3f7" fill-opacity="0.36">=</text><text x="35.69" y="40.62" fill="#eae3f7" fill-opacity="1.00">@</text><text x="38.15" y="40.62" fill="#eae3f7" fill-opacity="1.00">@</text><text x="40.62" y="40.62" fill="#eae3f7" fill-opacity="1.00">@</text><text x="43.08" y="40.62" fill="#eae3f7" fill-opacity="1.00">@</text><text x="45.54" y="40.62" fill="#eae3f7" fill-opacity="1.00">@</text><text x="48.00" y="40.62" fill="#eae3f7" fill-opacity="0.93">@</text><text x="50.46" y="40.62" fill="#eae3f7" fill-opacity="1.00">@</text><text x="52.92" y="40.62" fill="#eae3f7" fill-opacity="0.94">@</text><text x="55.38" y="40.62" fill="#eae3f7" fill-opacity="0.61">*</text><text x="57.85" y="40.62" fill="#eae3f7" fill-opacity="0.56">c</text><text x="60.31" y="40.62" fill="#eae3f7" fill-opacity="1.00">@</text><text x="62.77" y="40.62" fill="#eae3f7" fill-opacity="0.58">c</text><text x="1.23" y="43.08" fill="hsl(340 92% 63%)" fill-opacity="0.40">:</text><text x="3.69" y="43.08" fill="hsl(339 92% 63%)" fill-opacity="0.73">i</text><text x="8.62" y="43.08" fill="hsl(354 92% 63%)" fill-opacity="0.62">+</text><text x="11.08" y="43.08" fill="hsl(356 92% 63%)" fill-opacity="0.65">+</text><text x="13.54" y="43.08" fill="hsl(345 92% 63%)" fill-opacity="0.71">i</text><text x="18.46" y="43.08" fill="hsl(324 92% 63%)" fill-opacity="0.41">:</text><text x="23.38" y="43.08" fill="hsl(336 92% 63%)" fill-opacity="1.00">@</text><text x="25.85" y="43.08" fill="hsl(347 92% 63%)" fill-opacity="0.44">:</text><text x="28.31" y="43.08" fill="hsl(337 92% 63%)" fill-opacity="1.00">#</text><text x="30.77" y="43.08" fill="hsl(311 92% 63%)" fill-opacity="1.00">#</text><text x="33.23" y="43.08" fill="#eae3f7" fill-opacity="0.94">@</text><text x="35.69" y="43.08" fill="#eae3f7" fill-opacity="0.98">@</text><text x="38.15" y="43.08" fill="#eae3f7" fill-opacity="1.00">@</text><text x="40.62" y="43.08" fill="#eae3f7" fill-opacity="1.00">@</text><text x="43.08" y="43.08" fill="#eae3f7" fill-opacity="0.63">*</text><text x="45.54" y="43.08" fill="#eae3f7" fill-opacity="0.46">i</text><text x="48.00" y="43.08" fill="#eae3f7" fill-opacity="0.81">%</text><text x="50.46" y="43.08" fill="#eae3f7" fill-opacity="0.77">#</text><text x="52.92" y="43.08" fill="#eae3f7" fill-opacity="0.70">x</text><text x="55.38" y="43.08" fill="#eae3f7" fill-opacity="0.11">.</text><text x="57.85" y="43.08" fill="#eae3f7" fill-opacity="0.59">c</text><text x="60.31" y="43.08" fill="#eae3f7" fill-opacity="0.57">c</text><text x="62.77" y="43.08" fill="#eae3f7" fill-opacity="0.49">i</text><text x="1.23" y="45.54" fill="hsl(345 92% 63%)" fill-opacity="0.50">-</text><text x="3.69" y="45.54" fill="hsl(352 92% 63%)" fill-opacity="0.51">-</text><text x="6.15" y="45.54" fill="hsl(349 92% 63%)" fill-opacity="0.91">x</text><text x="8.62" y="45.54" fill="hsl(336 92% 63%)" fill-opacity="0.35">·</text><text x="11.08" y="45.54" fill="hsl(325 92% 63%)" fill-opacity="0.57">=</text><text x="13.54" y="45.54" fill="hsl(321 92% 63%)" fill-opacity="0.43">:</text><text x="16.00" y="45.54" fill="hsl(324 92% 63%)" fill-opacity="0.56">=</text><text x="18.46" y="45.54" fill="hsl(334 92% 63%)" fill-opacity="1.00">@</text><text x="20.92" y="45.54" fill="hsl(338 92% 63%)" fill-opacity="1.00">@</text><text x="23.38" y="45.54" fill="hsl(321 92% 63%)" fill-opacity="1.00">@</text><text x="25.85" y="45.54" fill="#eae3f7" fill-opacity="0.66">x</text><text x="28.31" y="45.54" fill="#eae3f7" fill-opacity="0.76">#</text><text x="30.77" y="45.54" fill="#eae3f7" fill-opacity="1.00">@</text><text x="33.23" y="45.54" fill="#eae3f7" fill-opacity="1.00">@</text><text x="35.69" y="45.54" fill="#eae3f7" fill-opacity="1.00">@</text><text x="38.15" y="45.54" fill="#eae3f7" fill-opacity="0.54">c</text><text x="40.62" y="45.54" fill="#eae3f7" fill-opacity="0.75">#</text><text x="43.08" y="45.54" fill="#eae3f7" fill-opacity="0.66">*</text><text x="45.54" y="45.54" fill="#eae3f7" fill-opacity="0.71">x</text><text x="48.00" y="45.54" fill="#eae3f7" fill-opacity="0.45">+</text><text x="50.46" y="45.54" fill="#eae3f7" fill-opacity="0.39">=</text><text x="52.92" y="45.54" fill="#eae3f7" fill-opacity="0.28">-</text><text x="55.38" y="45.54" fill="#eae3f7" fill-opacity="0.64">*</text><text x="57.85" y="45.54" fill="#eae3f7" fill-opacity="0.30">-</text><text x="60.31" y="45.54" fill="#eae3f7" fill-opacity="0.58">c</text><text x="62.77" y="45.54" fill="#eae3f7" fill-opacity="0.32">-</text><text x="3.69" y="48.00" fill="hsl(326 92% 63%)" fill-opacity="0.54">=</text><text x="6.15" y="48.00" fill="hsl(319 92% 63%)" fill-opacity="0.56">=</text><text x="8.62" y="48.00" fill="hsl(318 92% 63%)" fill-opacity="0.62">+</text><text x="11.08" y="48.00" fill="hsl(324 92% 63%)" fill-opacity="0.32">.</text><text x="13.54" y="48.00" fill="hsl(331 92% 63%)" fill-opacity="1.00">@</text><text x="16.00" y="48.00" fill="hsl(324 92% 63%)" fill-opacity="1.00">@</text><text x="18.46" y="48.00" fill="#eae3f7" fill-opacity="0.54">c</text><text x="20.92" y="48.00" fill="#eae3f7" fill-opacity="0.59">*</text><text x="23.38" y="48.00" fill="#eae3f7" fill-opacity="0.32">-</text><text x="25.85" y="48.00" fill="#eae3f7" fill-opacity="0.81">%</text><text x="28.31" y="48.00" fill="#eae3f7" fill-opacity="1.00">@</text><text x="30.77" y="48.00" fill="#eae3f7" fill-opacity="0.92">@</text><text x="33.23" y="48.00" fill="#eae3f7" fill-opacity="0.47">i</text><text x="35.69" y="48.00" fill="#eae3f7" fill-opacity="0.52">i</text><text x="38.15" y="48.00" fill="#eae3f7" fill-opacity="0.57">c</text><text x="40.62" y="48.00" fill="#eae3f7" fill-opacity="0.28">-</text><text x="43.08" y="48.00" fill="#eae3f7" fill-opacity="0.33">-</text><text x="48.00" y="48.00" fill="#eae3f7" fill-opacity="0.40">+</text><text x="52.92" y="48.00" fill="#eae3f7" fill-opacity="0.35">=</text><text x="55.38" y="48.00" fill="#eae3f7" fill-opacity="0.17">·</text><text x="57.85" y="48.00" fill="#eae3f7" fill-opacity="0.38">=</text><text x="62.77" y="48.00" fill="#eae3f7" fill-opacity="0.17">·</text><text x="1.23" y="50.46" fill="hsl(328 92% 63%)" fill-opacity="0.61">=</text><text x="3.69" y="50.46" fill="hsl(319 92% 63%)" fill-opacity="0.52">-</text><text x="6.15" y="50.46" fill="hsl(315 92% 63%)" fill-opacity="0.88">*</text><text x="8.62" y="50.46" fill="hsl(317 92% 63%)" fill-opacity="0.48">-</text><text x="11.08" y="50.46" fill="hsl(323 92% 63%)" fill-opacity="0.92">x</text><text x="13.54" y="50.46" fill="hsl(323 92% 63%)" fill-opacity="1.00">@</text><text x="16.00" y="50.46" fill="hsl(310 92% 63%)" fill-opacity="0.83">*</text><text x="18.46" y="50.46" fill="#eae3f7" fill-opacity="0.75">#</text><text x="20.92" y="50.46" fill="#eae3f7" fill-opacity="0.41">+</text><text x="23.38" y="50.46" fill="#eae3f7" fill-opacity="0.23">:</text><text x="25.85" y="50.46" fill="#eae3f7" fill-opacity="1.00">@</text><text x="28.31" y="50.46" fill="#eae3f7" fill-opacity="1.00">@</text><text x="30.77" y="50.46" fill="#eae3f7" fill-opacity="0.77">#</text><text x="33.23" y="50.46" fill="#eae3f7" fill-opacity="0.53">c</text><text x="35.69" y="50.46" fill="#eae3f7" fill-opacity="0.64">*</text><text x="38.15" y="50.46" fill="#eae3f7" fill-opacity="0.17">·</text><text x="40.62" y="50.46" fill="#eae3f7" fill-opacity="0.55">c</text><text x="43.08" y="50.46" fill="#eae3f7" fill-opacity="0.26">:</text><text x="45.54" y="50.46" fill="#eae3f7" fill-opacity="0.46">i</text><text x="48.00" y="50.46" fill="#eae3f7" fill-opacity="0.16">·</text><text x="50.46" y="50.46" fill="#eae3f7" fill-opacity="0.53">c</text><text x="52.92" y="50.46" fill="#eae3f7" fill-opacity="0.28">-</text><text x="55.38" y="50.46" fill="#eae3f7" fill-opacity="0.49">i</text><text x="57.85" y="50.46" fill="#eae3f7" fill-opacity="0.10">.</text><text x="60.31" y="50.46" fill="#eae3f7" fill-opacity="0.33">=</text><text x="3.69" y="52.92" fill="hsl(335 92% 63%)" fill-opacity="0.48">-</text><text x="6.15" y="52.92" fill="hsl(324 92% 63%)" fill-opacity="0.48">-</text><text x="8.62" y="52.92" fill="hsl(315 92% 63%)" fill-opacity="0.42">:</text><text x="11.08" y="52.92" fill="hsl(313 92% 63%)" fill-opacity="0.44">:</text><text x="13.54" y="52.92" fill="hsl(315 92% 63%)" fill-opacity="0.68">i</text><text x="16.00" y="52.92" fill="hsl(319 92% 63%)" fill-opacity="0.28">.</text><text x="18.46" y="52.92" fill="hsl(317 92% 63%)" fill-opacity="0.79">c</text><text x="20.92" y="52.92" fill="#eae3f7" fill-opacity="0.35">=</text><text x="23.38" y="52.92" fill="#eae3f7" fill-opacity="0.36">=</text><text x="28.31" y="52.92" fill="#eae3f7" fill-opacity="0.18">·</text><text x="30.77" y="52.92" fill="#eae3f7" fill-opacity="0.48">i</text><text x="33.23" y="52.92" fill="#eae3f7" fill-opacity="1.00">@</text><text x="35.69" y="52.92" fill="#eae3f7" fill-opacity="0.18">·</text><text x="38.15" y="52.92" fill="#eae3f7" fill-opacity="0.49">i</text><text x="40.62" y="52.92" fill="#eae3f7" fill-opacity="0.36">=</text><text x="43.08" y="52.92" fill="#eae3f7" fill-opacity="0.25">:</text><text x="45.54" y="52.92" fill="#eae3f7" fill-opacity="0.11">.</text><text x="48.00" y="52.92" fill="#eae3f7" fill-opacity="0.17">·</text><text x="52.92" y="52.92" fill="#eae3f7" fill-opacity="0.19">·</text><text x="55.38" y="52.92" fill="#eae3f7" fill-opacity="0.20">:</text><text x="57.85" y="52.92" fill="#eae3f7" fill-opacity="0.35">=</text><text x="62.77" y="52.92" fill="#eae3f7" fill-opacity="0.28">-</text><text x="1.23" y="55.38" fill="hsl(326 92% 63%)" fill-opacity="0.33">·</text><text x="3.69" y="55.38" fill="hsl(330 92% 63%)" fill-opacity="0.34">·</text><text x="6.15" y="55.38" fill="hsl(335 92% 63%)" fill-opacity="0.59">=</text><text x="11.08" y="55.38" fill="hsl(328 92% 63%)" fill-opacity="0.62">+</text><text x="13.54" y="55.38" fill="hsl(318 92% 63%)" fill-opacity="0.33">·</text><text x="16.00" y="55.38" fill="hsl(312 92% 63%)" fill-opacity="0.45">:</text><text x="18.46" y="55.38" fill="hsl(311 92% 63%)" fill-opacity="0.33">·</text><text x="20.92" y="55.38" fill="hsl(313 92% 63%)" fill-opacity="0.75">c</text><text x="23.38" y="55.38" fill="hsl(316 92% 63%)" fill-opacity="0.29">.</text><text x="25.85" y="55.38" fill="hsl(310 92% 63%)" fill-opacity="0.83">*</text><text x="28.31" y="55.38" fill="#eae3f7" fill-opacity="0.57">c</text><text x="30.77" y="55.38" fill="#eae3f7" fill-opacity="0.29">-</text><text x="33.23" y="55.38" fill="#eae3f7" fill-opacity="0.13">.</text><text x="35.69" y="55.38" fill="#eae3f7" fill-opacity="0.40">+</text><text x="38.15" y="55.38" fill="#eae3f7" fill-opacity="0.47">i</text><text x="40.62" y="55.38" fill="#eae3f7" fill-opacity="0.63">*</text><text x="43.08" y="55.38" fill="#eae3f7" fill-opacity="0.30">-</text><text x="45.54" y="55.38" fill="#eae3f7" fill-opacity="0.83">%</text><text x="48.00" y="55.38" fill="#eae3f7" fill-opacity="0.20">:</text><text x="50.46" y="55.38" fill="#eae3f7" fill-opacity="0.18">·</text><text x="55.38" y="55.38" fill="#eae3f7" fill-opacity="0.28">-</text><text x="60.31" y="55.38" fill="#eae3f7" fill-opacity="0.45">+</text><text x="62.77" y="55.38" fill="#eae3f7" fill-opacity="0.23">:</text><text x="3.69" y="57.85" fill="hsl(324 92% 63%)" fill-opacity="0.33">·</text><text x="8.62" y="57.85" fill="hsl(331 92% 63%)" fill-opacity="0.68">i</text><text x="13.54" y="57.85" fill="hsl(328 92% 63%)" fill-opacity="0.51">-</text><text x="16.00" y="57.85" fill="hsl(318 92% 63%)" fill-opacity="0.31">.</text><text x="18.46" y="57.85" fill="hsl(311 92% 63%)" fill-opacity="0.40">:</text><text x="23.38" y="57.85" fill="hsl(310 92% 63%)" fill-opacity="0.57">=</text><text x="25.85" y="57.85" fill="hsl(312 92% 63%)" fill-opacity="0.41">:</text><text x="28.31" y="57.85" fill="hsl(309 92% 63%)" fill-opacity="0.74">i</text><text x="30.77" y="57.85" fill="#eae3f7" fill-opacity="0.34">=</text><text x="33.23" y="57.85" fill="#eae3f7" fill-opacity="0.11">.</text><text x="35.69" y="57.85" fill="#eae3f7" fill-opacity="0.10">.</text><text x="38.15" y="57.85" fill="#eae3f7" fill-opacity="0.16">·</text><text x="43.08" y="57.85" fill="#eae3f7" fill-opacity="0.45">+</text><text x="45.54" y="57.85" fill="#eae3f7" fill-opacity="0.17">·</text><text x="48.00" y="57.85" fill="#eae3f7" fill-opacity="0.57">c</text><text x="52.92" y="57.85" fill="#eae3f7" fill-opacity="0.11">.</text><text x="57.85" y="57.85" fill="#eae3f7" fill-opacity="0.21">:</text><text x="62.77" y="57.85" fill="#eae3f7" fill-opacity="0.25">:</text><text x="1.23" y="60.31" fill="hsl(322 92% 63%)" fill-opacity="0.62">+</text><text x="6.15" y="60.31" fill="hsl(329 92% 63%)" fill-opacity="0.68">+</text><text x="8.62" y="60.31" fill="hsl(330 92% 63%)" fill-opacity="0.57">=</text><text x="11.08" y="60.31" fill="hsl(323 92% 63%)" fill-opacity="0.87">*</text><text x="13.54" y="60.31" fill="hsl(314 92% 63%)" fill-opacity="0.27">.</text><text x="16.00" y="60.31" fill="hsl(309 92% 63%)" fill-opacity="0.43">:</text><text x="20.92" y="60.31" fill="hsl(308 92% 63%)" fill-opacity="0.77">c</text><text x="23.38" y="60.31" fill="hsl(310 92% 63%)" fill-opacity="0.75">c</text><text x="25.85" y="60.31" fill="#eae3f7" fill-opacity="0.90">@</text><text x="30.77" y="60.31" fill="#eae3f7" fill-opacity="0.36">=</text><text x="33.23" y="60.31" fill="#eae3f7" fill-opacity="0.36">=</text><text x="35.69" y="60.31" fill="#eae3f7" fill-opacity="0.47">i</text><text x="40.62" y="60.31" fill="#eae3f7" fill-opacity="0.39">=</text><text x="43.08" y="60.31" fill="#eae3f7" fill-opacity="0.34">=</text><text x="45.54" y="60.31" fill="#eae3f7" fill-opacity="0.44">+</text><text x="48.00" y="60.31" fill="#eae3f7" fill-opacity="0.07">.</text><text x="50.46" y="60.31" fill="#eae3f7" fill-opacity="0.22">:</text><text x="55.38" y="60.31" fill="#eae3f7" fill-opacity="0.25">:</text><text x="60.31" y="60.31" fill="#eae3f7" fill-opacity="0.42">+</text><text x="62.77" y="60.31" fill="#eae3f7" fill-opacity="0.40">+</text><text x="1.23" y="62.77" fill="hsl(327 92% 63%)" fill-opacity="0.34">·</text><text x="3.69" y="62.77" fill="hsl(323 92% 63%)" fill-opacity="0.71">i</text><text x="8.62" y="62.77" fill="hsl(308 92% 63%)" fill-opacity="0.37">·</text><text x="11.08" y="62.77" fill="#eae3f7" fill-opacity="0.11">.</text><text x="13.54" y="62.77" fill="#eae3f7" fill-opacity="0.25">:</text><text x="16.00" y="62.77" fill="hsl(307 92% 63%)" fill-opacity="0.35">·</text><text x="18.46" y="62.77" fill="#eae3f7" fill-opacity="0.72">x</text><text x="23.38" y="62.77" fill="#eae3f7" fill-opacity="0.25">:</text><text x="25.85" y="62.77" fill="#eae3f7" fill-opacity="0.11">.</text><text x="28.31" y="62.77" fill="#eae3f7" fill-opacity="0.34">=</text><text x="30.77" y="62.77" fill="#eae3f7" fill-opacity="0.11">.</text><text x="33.23" y="62.77" fill="#eae3f7" fill-opacity="0.24">:</text><text x="38.15" y="62.77" fill="#eae3f7" fill-opacity="0.43">+</text><text x="43.08" y="62.77" fill="#eae3f7" fill-opacity="0.27">-</text><text x="48.00" y="62.77" fill="#eae3f7" fill-opacity="0.08">.</text><text x="52.92" y="62.77" fill="#eae3f7" fill-opacity="0.21">:</text><text x="55.38" y="62.77" fill="#eae3f7" fill-opacity="0.12">.</text><text x="57.85" y="62.77" fill="#eae3f7" fill-opacity="0.16">·</text><text x="62.77" y="62.77" fill="#eae3f7" fill-opacity="0.28">-</text></g></g></svg>