<svg xmlns="http://www.w3.org/2000/svg" viewBox="0 0 1012.97 160" width="1012.97" height="160" role="img" aria-label="HarperZ9.github.io lockup"><title>HarperZ9.github.io lockup</title><defs></defs><g transform="scale(0.31)"><desc>A ring drawn around a bright core, with the document element inside the ring.</desc><defs><radialGradient id="mk-HarperZ9.github.io-fd0-halo" r="50%"><stop offset="0" stop-color="#ffab52" stop-opacity="0.34"/><stop offset="0.35" stop-color="#ffab52" stop-opacity="0.1"/><stop offset="1" stop-color="#ffab52" stop-opacity="0"/></radialGradient><radialGradient id="mk-HarperZ9.github.io-fd0-core"><stop offset="0" stop-color="#fff7e8"/><stop offset="0.45" stop-color="#fff7e8" stop-opacity="0.96"/><stop offset="0.72" stop-color="#ffd592" stop-opacity="0.55"/><stop offset="1" stop-color="#ffab52" stop-opacity="0"/></radialGradient></defs><circle cx="256" cy="256" r="196" fill="none" stroke="#e6e1d6" stroke-width="18" opacity="1"/><line x1="136" y1="176" x2="376" y2="176" stroke="#e6e1d6" stroke-width="10.8" stroke-opacity="1" stroke-linecap="round"/><line x1="136" y1="226" x2="336" y2="226" stroke="#e6e1d6" stroke-width="10.8" stroke-opacity="1" stroke-linecap="round"/><line x1="136" y1="276" x2="376" y2="276" stroke="#e6e1d6" stroke-width="10.8" stroke-opacity="1" stroke-linecap="round"/><circle cx="256" cy="256" r="34" fill="#e6e1d6" opacity="1"/></g><path fill="#e6e1d6" d="M215.04 115.71V46.57H226.55V74.84H257.7V46.57H269.21V115.71H257.7V85.46H226.55V115.71ZM311.76 115.71 310.97 107.48V84.86Q310.97 80.1 308.09 77.67Q305.22 75.24 300.06 75.24Q296.09 75.24 292.27 76.78Q288.45 78.31 285.28 81.49L279.13 74.25Q283.89 69.78 289.24 67.85Q294.6 65.91 300.95 65.91Q310.87 65.91 316.38 70.92Q321.88 75.93 321.88 84.86V115.71ZM296.59 116.6Q291.13 116.6 286.91 114.62Q282.7 112.64 280.37 109.07Q278.04 105.49 278.04 100.73Q278.04 96.67 279.77 93.69Q281.51 90.71 284.28 89.03Q286.67 87.54 289.84 86.89Q293.01 86.25 296.49 86.25H311.86V94.48H298.07Q296.29 94.48 294.5 94.83Q292.72 95.18 291.33 96.07Q290.34 96.86 289.69 98.05Q289.05 99.24 289.05 100.83Q289.05 104.01 291.48 105.84Q293.91 107.68 297.97 107.68Q301.55 107.68 304.47 106.09Q307.4 104.5 309.18 101.72Q310.97 98.95 310.97 95.48L314.34 100.93Q313.15 106.09 310.57 109.61Q307.99 113.13 304.42 114.87Q300.85 116.6 296.59 116.6ZM331.7 115.71V66.81H342.81V80L340.73 80.3Q341.23 76.03 343.61 72.81Q345.99 69.58 349.41 67.75Q352.83 65.91 356.2 65.91Q358.59 65.91 360.77 66.51Q362.95 67.1 365.33 68.49L359.97 78.41Q358.88 77.72 357.15 77.27Q355.41 76.83 353.82 76.83Q351.74 76.83 349.71 77.62Q347.67 78.41 346.09 80.05Q344.5 81.69 343.71 84.27Q343.21 85.65 342.96 87.89Q342.71 90.12 342.71 94.09V115.71ZM370.89 135.95V66.81H381.8V80.4L379.02 80.5Q380.31 75.14 382.84 71.96Q385.37 68.79 388.89 67.35Q392.41 65.91 396.38 65.91Q402.93 65.91 407.69 69.24Q412.45 72.56 415.08 78.31Q417.71 84.07 417.71 91.31Q417.71 99.15 414.83 104.85Q411.96 110.55 407.14 113.58Q402.33 116.6 396.38 116.6Q392.21 116.6 388.69 115.02Q385.17 113.43 382.74 110.26Q380.31 107.08 379.32 102.52L381.8 102.02V135.95ZM393.7 106.59Q397.57 106.59 400.5 104.7Q403.42 102.82 405.01 99.34Q406.6 95.87 406.6 91.31Q406.6 86.75 405.01 83.27Q403.42 79.8 400.5 77.92Q397.57 76.03 393.7 76.03Q389.83 76.03 386.91 77.92Q383.98 79.8 382.39 83.27Q380.81 86.75 380.81 91.31Q380.81 95.87 382.39 99.29Q383.98 102.72 386.91 104.65Q389.83 106.59 393.7 106.59ZM447.27 116.6Q441.12 116.6 436.61 114.62Q432.09 112.64 429.22 109.07Q426.34 105.49 424.95 100.98Q423.56 96.47 423.56 91.61Q423.56 86.75 424.9 82.13Q426.24 77.52 429.02 73.85Q431.8 70.18 436.16 68.05Q440.52 65.91 446.48 65.91Q452.13 65.91 456.35 67.85Q460.56 69.78 463.34 73.2Q466.12 76.63 467.46 80.99Q468.8 85.36 468.8 90.32Q468.8 91.01 468.75 92.3Q468.7 93.59 468.5 94.88H434.57Q434.97 100.73 438.54 103.81Q442.11 106.88 447.67 106.88Q451.73 106.88 455.11 105.59Q458.48 104.3 461.26 101.53L467.31 108.87Q464.23 111.64 461.16 113.33Q458.08 115.02 454.76 115.81Q451.44 116.6 447.27 116.6ZM457.98 89.32Q458.18 88.53 458.23 87.74Q458.28 86.94 458.28 86.15Q458.28 83.97 457.54 81.98Q456.79 80 455.31 78.46Q453.82 76.92 451.64 75.98Q449.45 75.04 446.68 75.04Q442.81 75.04 440.18 76.73Q437.55 78.41 436.11 81.04Q434.67 83.67 434.37 86.75H461.56ZM477.03 115.71V66.81H488.14V80L486.06 80.3Q486.55 76.03 488.93 72.81Q491.32 69.58 494.74 67.75Q498.16 65.91 501.53 65.91Q503.91 65.91 506.1 66.51Q508.28 67.1 510.66 68.49L505.3 78.41Q504.21 77.72 502.48 77.27Q500.74 76.83 499.15 76.83Q497.07 76.83 495.04 77.62Q493 78.41 491.41 80.05Q489.83 81.69 489.03 84.27Q488.54 85.65 488.29 87.89Q488.04 90.12 488.04 94.09V115.71ZM512.64 115.71V106.19L553.22 53.22L554.9 56.79H515.02V46.57H564.82V56.09L525.14 107.68L523.65 105.49H566.01V115.71ZM582.08 115.71 599.34 88.83 600.73 90.61Q598.95 91.61 596.86 92.1Q594.78 92.6 592.8 92.6Q586.15 92.6 580.89 89.52Q575.64 86.45 572.56 81.19Q569.48 75.93 569.48 69.48Q569.48 62.54 572.86 57.18Q576.23 51.83 581.88 48.75Q587.54 45.68 594.28 45.68Q601.13 45.68 606.78 48.75Q612.44 51.83 615.86 57.13Q619.28 62.44 619.28 69.39Q619.28 72.76 618.24 76.03Q617.2 79.31 615.41 82.28L594.78 115.71ZM594.28 82.88Q598.05 82.88 601.13 81.19Q604.2 79.5 606.09 76.48Q607.97 73.45 607.97 69.48Q607.97 65.42 606.14 62.44Q604.3 59.47 601.18 57.78Q598.05 56.09 594.28 56.09Q590.52 56.09 587.44 57.78Q584.36 59.47 582.48 62.49Q580.6 65.52 580.6 69.48Q580.6 73.45 582.43 76.48Q584.27 79.5 587.39 81.19Q590.52 82.88 594.28 82.88ZM625.53 115.71V103.21H637.64V115.71ZM667.79 136.94Q656.98 136.94 650.73 133.02Q644.48 129.1 644.48 122.36Q644.48 121.76 644.53 120.97Q644.58 120.18 644.78 119.38L658.07 110.75L661.05 113.63L654.6 121.66Q654.5 121.96 654.5 122.21Q654.5 122.46 654.5 122.76Q654.5 125.83 658.22 127.47Q661.94 129.1 667.79 129.1Q672.75 129.1 675.73 127.76Q678.7 126.43 678.7 123.75Q678.7 122.26 677.81 121.32Q676.92 120.37 675.13 119.78Q673.35 119.18 670.72 118.74Q668.09 118.29 664.52 117.89Q660.05 117.2 655.74 115.91Q651.42 114.62 648.6 112.04Q645.77 109.46 645.77 105.2Q645.77 101.43 648.35 98.3Q650.93 95.18 655.19 93.19L660.85 97.56Q658.07 98.15 656.68 99.59Q655.29 101.03 655.29 103.01Q655.29 104.7 656.58 105.74Q657.87 106.78 660.3 107.33Q662.73 107.88 666.11 108.37Q671.16 108.97 675.43 109.76Q679.7 110.55 682.87 111.99Q686.04 113.43 687.78 115.91Q689.52 118.39 689.52 122.36Q689.52 129.4 683.81 133.17Q678.11 136.94 667.79 136.94ZM666.7 101.53Q660.75 101.53 656.19 99.24Q651.62 96.96 649.09 92.95Q646.56 88.93 646.56 83.87Q646.56 78.41 649.24 74.4Q651.92 70.38 656.43 68.15Q660.95 65.91 666.3 65.91Q671.66 65.91 676.12 68.15Q680.59 70.38 683.32 74.49Q686.04 78.61 686.04 84.27Q686.04 89.42 683.61 93.34Q681.18 97.26 676.82 99.39Q672.45 101.53 666.7 101.53ZM666.5 92.7Q670.77 92.7 672.95 90.07Q675.13 87.44 675.13 83.77Q675.13 79.8 672.75 77.37Q670.37 74.94 666.5 74.94Q662.44 74.94 660 77.37Q657.57 79.8 657.57 83.67Q657.57 87.44 659.86 90.07Q662.14 92.7 666.5 92.7ZM682.87 76.73 674.84 71.57 685.85 62.64 691.5 69.48ZM696.46 115.71V66.81H707.47V115.71ZM695.96 58.77V46.57H707.97V58.77ZM735.55 116.6Q731.88 116.6 728.65 115.17Q725.43 113.73 723.54 110.5Q721.66 107.28 721.66 102.02V54.9L732.77 48.75V98.95Q732.77 103.11 734.01 105.35Q735.25 107.58 738.52 107.58Q739.51 107.58 740.85 107.33Q742.19 107.08 743.68 106.68V115.22Q741.7 115.91 739.66 116.26Q737.63 116.6 735.55 116.6ZM712.33 75.34V66.81H743.68V75.34ZM751.02 115.71V46.57H762.03V77.62L760.05 78.12Q761.34 73.85 763.87 71.17Q766.4 68.49 769.67 67.2Q772.94 65.91 776.61 65.91Q784.85 65.91 789.46 70.63Q794.07 75.34 794.07 84.07V115.71H783.06V88.13Q783.06 81.59 780.68 78.51Q778.3 75.44 773.34 75.44Q767.79 75.44 764.91 79.4Q762.03 83.37 762.03 91.9V115.71ZM820.96 116.6Q815.2 116.6 811.28 114.32Q807.37 112.04 805.38 107.78Q803.4 103.51 803.4 97.46V66.81H814.41V94.48Q814.41 98.35 815.35 101.18Q816.29 104.01 818.43 105.49Q820.56 106.98 824.23 106.98Q828.5 106.98 830.93 104.75Q833.36 102.52 834.4 98.2Q835.44 93.89 835.44 87.84V66.81H846.45V115.71H835.44V105.2L837.32 105.89Q835.04 111.45 830.73 114.03Q826.41 116.6 820.96 116.6ZM882.46 116.6Q878.49 116.6 874.97 115.02Q871.45 113.43 868.87 110.11Q866.29 106.78 865 101.43L867.88 102.12V115.71H856.97V46.57H867.88V80.5H865.4Q866.39 75.83 868.82 72.61Q871.25 69.39 874.77 67.65Q878.29 65.91 882.46 65.91Q888.41 65.91 893.22 68.94Q898.04 71.96 900.91 77.62Q903.79 83.27 903.79 91.21Q903.79 98.45 901.16 104.2Q898.53 109.96 893.77 113.28Q889.01 116.6 882.46 116.6ZM879.78 106.49Q883.65 106.49 886.58 104.6Q889.5 102.72 891.09 99.24Q892.68 95.77 892.68 91.21Q892.68 86.65 891.09 83.17Q889.5 79.7 886.58 77.82Q883.65 75.93 879.78 75.93Q875.91 75.93 872.99 77.87Q870.06 79.8 868.47 83.22Q866.89 86.65 866.89 91.21Q866.89 95.77 868.47 99.24Q870.06 102.72 872.99 104.6Q875.91 106.49 879.78 106.49ZM911.33 115.71V103.21H923.43V115.71ZM933.15 115.71V66.81H944.16V115.71ZM932.66 58.77V46.57H944.66V58.77ZM976.5 116.6Q969.56 116.6 964 113.33Q958.45 110.06 955.32 104.3Q952.2 98.55 952.2 91.21Q952.2 83.87 955.32 78.12Q958.45 72.36 963.95 69.14Q969.46 65.91 976.5 65.91Q983.64 65.91 989.05 69.14Q994.46 72.36 997.63 78.12Q1000.81 83.87 1000.81 91.21Q1000.81 98.55 997.68 104.3Q994.56 110.06 989.05 113.33Q983.55 116.6 976.5 116.6ZM976.6 106.88Q980.67 106.88 983.64 105Q986.62 103.11 988.21 99.54Q989.8 95.97 989.8 91.21Q989.8 86.35 988.21 82.83Q986.62 79.31 983.64 77.42Q980.67 75.54 976.6 75.54Q972.34 75.54 969.36 77.47Q966.38 79.4 964.8 82.88Q963.21 86.35 963.21 91.21Q963.21 95.97 964.8 99.54Q966.38 103.11 969.36 105Q972.34 106.88 976.6 106.88Z"/></svg>
