<svg xmlns="http://www.w3.org/2000/svg" viewBox="0 0 1024 1024" width="1024" height="1024" role="img" aria-label="Canon plugin icon"><title>Canon</title><desc>Canon plugin icon, full detail tier. Generated by tools/build_plugin_support_pages.py, seed 1366584654.</desc><defs><clipPath id="canon-ap"><circle cx="512" cy="512" r="412"/></clipPath><radialGradient id="canon-halo"><stop offset="0" stop-color="#fff3e2" stop-opacity="0.95"/><stop offset="0.32" stop-color="#f3c88c" stop-opacity="0.42"/><stop offset="1" stop-color="#f3c88c" stop-opacity="0"/></radialGradient><filter id="canon-grain" x="0" y="0" width="100%" height="100%"><feTurbulence type="fractalNoise" baseFrequency="0.62" numOctaves="3" seed="742"/><feColorMatrix values="0 0 0 0 0.92  0 0 0 0 0.89  0 0 0 0 0.97  1.6 0 0 0 -0.35"/><feComponentTransfer><feFuncA type="discrete" tableValues="0 0 0 0 0 0 0 0.28"/></feComponentTransfer></filter><pattern id="canon-scan" width="8" height="8" patternUnits="userSpaceOnUse"><rect width="8" height="2" fill="#eae3f7" opacity="0.035"/></pattern></defs><rect width="1024" height="1024" fill="#040308"/><g clip-path="url(#canon-ap)" fill="none" stroke="#eae3f7" stroke-width="2.4" stroke-linecap="round" stroke-linejoin="round"><path d="M794.8 794.8 L229.2 794.8 L229.2 229.2 L794.8 229.2 Z" opacity="0.90"/><path d="M730.8 777.4 L246.6 730.8 L293.2 246.6 L777.4 293.2 Z" opacity="0.90"/><path d="M677.4 757.2 L266.8 677.4 L346.6 266.8 L757.2 346.6 Z" opacity="0.90"/><path d="M633.4 735.6 L288.4 633.4 L390.6 288.4 L735.6 390.6 Z" opacity="0.90"/><path d="M597.5 713.4 L310.6 597.5 L426.5 310.6 L713.4 426.5 Z" opacity="0.90"/><path d="M568.6 691.4 L332.6 568.6 L455.4 332.6 L691.4 455.4 Z" opacity="0.90"/><path d="M545.6 670.3 L353.7 545.6 L478.4 353.7 L670.3 478.4 Z" opacity="0.90"/><path d="M527.8 650.3 L373.7 527.8 L496.2 373.7 L650.3 496.2 Z" opacity="0.90"/><path d="M514.1 631.7 L392.3 514.1 L509.9 392.3 L631.7 509.9 Z" opacity="0.90"/><path d="M503.9 614.6 L409.4 503.9 L520.1 409.4 L614.6 520.1 Z" opacity="0.90"/><path d="M496.6 599.2 L424.8 496.6 L527.4 424.8 L599.2 527.4 Z" opacity="0.90"/></g><circle cx="512" cy="512" r="412" fill="none" stroke="#eae3f7" stroke-width="1.9" opacity="0.42"/><circle cx="512" cy="512" r="180" fill="url(#canon-halo)"/><circle cx="512" cy="512" r="50" fill="#040308"/><circle cx="512" cy="512" r="50" fill="none" stroke="#fff3e2" stroke-width="7"/><rect width="1024" height="1024" fill="url(#canon-scan)"/><rect width="1024" height="1024" filter="url(#canon-grain)"/></svg>
