<svg xmlns="http://www.w3.org/2000/svg" viewBox="0 0 1024 1024" width="1024" height="1024" role="img" aria-label="Plexus plugin icon"><title>Plexus</title><desc>Plexus plugin icon, small detail tier. Generated by tools/build_plugin_support_pages.py, seed 272079387.</desc><defs><clipPath id="plexus-ap"><circle cx="512" cy="512" r="412"/></clipPath><radialGradient id="plexus-halo"><stop offset="0" stop-color="#fff3e2" stop-opacity="0.95"/><stop offset="0.32" stop-color="#f3c88c" stop-opacity="0.42"/><stop offset="1" stop-color="#f3c88c" stop-opacity="0"/></radialGradient></defs><rect width="1024" height="1024" fill="#040308"/><g clip-path="url(#plexus-ap)" fill="none" stroke="#eae3f7" stroke-width="15" stroke-linecap="round" stroke-linejoin="round"><line x1="512" y1="164.6" x2="850.7" y2="589.3" opacity="0.45"/><line x1="512" y1="164.6" x2="662.7" y2="825" opacity="0.45"/><line x1="512" y1="164.6" x2="592.6" y2="344.6" opacity="0.80"/><line x1="512" y1="164.6" x2="431.4" y2="344.6" opacity="0.80"/><line x1="783.6" y1="295.4" x2="662.7" y2="825" opacity="0.45"/><line x1="783.6" y1="295.4" x2="361.3" y2="825" opacity="0.45"/><line x1="783.6" y1="295.4" x2="693.2" y2="470.6" opacity="0.80"/><line x1="783.6" y1="295.4" x2="592.6" y2="344.6" opacity="0.80"/><line x1="850.7" y1="589.3" x2="361.3" y2="825" opacity="0.45"/><line x1="850.7" y1="589.3" x2="173.3" y2="589.3" opacity="0.45"/><line x1="850.7" y1="589.3" x2="657.3" y2="627.9" opacity="0.80"/><line x1="850.7" y1="589.3" x2="693.2" y2="470.6" opacity="0.80"/><line x1="662.7" y1="825" x2="173.3" y2="589.3" opacity="0.45"/><line x1="662.7" y1="825" x2="240.4" y2="295.4" opacity="0.45"/><line x1="662.7" y1="825" x2="512" y2="697.8" opacity="0.80"/><line x1="662.7" y1="825" x2="657.3" y2="627.9" opacity="0.80"/><line x1="361.3" y1="825" x2="240.4" y2="295.4" opacity="0.45"/><line x1="361.3" y1="825" x2="512" y2="164.6" opacity="0.45"/><line x1="361.3" y1="825" x2="366.7" y2="627.9" opacity="0.80"/><line x1="361.3" y1="825" x2="512" y2="697.8" opacity="0.80"/><line x1="173.3" y1="589.3" x2="512" y2="164.6" opacity="0.45"/><line x1="173.3" y1="589.3" x2="783.6" y2="295.4" opacity="0.45"/><line x1="173.3" y1="589.3" x2="330.8" y2="470.6" opacity="0.80"/><line x1="173.3" y1="589.3" x2="366.7" y2="627.9" opacity="0.80"/><line x1="240.4" y1="295.4" x2="783.6" y2="295.4" opacity="0.45"/><line x1="240.4" y1="295.4" x2="850.7" y2="589.3" opacity="0.45"/><line x1="240.4" y1="295.4" x2="431.4" y2="344.6" opacity="0.80"/><line x1="240.4" y1="295.4" x2="330.8" y2="470.6" opacity="0.80"/><line x1="592.6" y1="344.6" x2="539.8" y2="454.3" opacity="0.80"/><line x1="693.2" y1="470.6" x2="574.4" y2="497.8" opacity="0.80"/><line x1="657.3" y1="627.9" x2="562" y2="551.9" opacity="0.80"/><line x1="512" y1="697.8" x2="512" y2="576" opacity="0.80"/><line x1="366.7" y1="627.9" x2="462" y2="551.9" opacity="0.80"/><line x1="330.8" y1="470.6" x2="449.6" y2="497.8" opacity="0.80"/><line x1="431.4" y1="344.6" x2="484.2" y2="454.3" opacity="0.80"/></g><circle cx="512" cy="512" r="412" fill="none" stroke="#eae3f7" stroke-width="12" opacity="0.42"/><circle cx="512" cy="512" r="177.6" fill="url(#plexus-halo)"/><circle cx="512" cy="512" r="74" fill="#040308"/><circle cx="512" cy="512" r="74" fill="none" stroke="#fff3e2" stroke-width="20"/></svg>
