<svg xmlns="http://www.w3.org/2000/svg" viewBox="0 0 1200 900" width="1200" height="900"><defs><clipPath id="frame"><rect width="1200" height="900"/></clipPath><radialGradient id="g0" cx="600" cy="450" r="620" gradientUnits="userSpaceOnUse"><stop offset="0" stop-color="#0d0f18" stop-opacity="0.75"/><stop offset="1" stop-color="#0d0f18" stop-opacity="0"/></radialGradient><radialGradient id="g1" cx="600" cy="450" r="390" gradientUnits="userSpaceOnUse"><stop offset="0" stop-color="#ffab52" stop-opacity="0.16"/><stop offset="0.45" stop-color="#ffab52" stop-opacity="0.05"/><stop offset="1" stop-color="#ffab52" stop-opacity="0"/></radialGradient><radialGradient id="g2" cx="600" cy="450" r="130" gradientUnits="userSpaceOnUse"><stop offset="0" stop-color="#fff7e8" stop-opacity="1"/><stop offset="0.16" stop-color="#ffd592" stop-opacity="0.95"/><stop offset="0.42" stop-color="#ffab52" stop-opacity="0.5"/><stop offset="1" stop-color="#ffab52" stop-opacity="0"/></radialGradient><filter id="n3" x="0" y="0" width="100%" height="100%" color-interpolation-filters="sRGB"><feTurbulence type="fractalNoise" baseFrequency=".85" numOctaves="1" seed="207" stitchTiles="stitch"/><feColorMatrix values="0 0 0 0 1 0 0 0 0 1 0 0 0 0 1 3.2 0 0 0 -1.45"/></filter><pattern id="s4" width="8" height="3" patternUnits="userSpaceOnUse"><rect width="8" height="1" fill="#000"/></pattern></defs><g clip-path="url(#frame)"><rect width="1200" height="900" fill="#040405"/><circle cx="600" cy="450" r="620" fill="url(#g0)"/><path fill="none" stroke="#e6e1d6" stroke-width="0.9" stroke-opacity="0.5" stroke-linecap="round" stroke-linejoin="round" d="m634 450 6 7 6 10 4 13 2 10 1 12-1 14-2 15-3 8-6 17-4 9-11 19-7 9-8 10-9 10-11 10-11 10-13 10-14 9-16 10-17 8-19 9-21 7-22 7-24 5-26 5-27 3-30 1-31 0m314-255 6 7 5 11 4 13 1 10 0 12-1 14-4 14-2 8-8 17-4 9-12 18-8 9-8 10-10 9-11 9-12 10-13 9-15 9-16 8-18 8-19 7-21 6-23 6-24 4-26 3-28 1-29 0-32-2m328-237 5 7 5 11 3 13 1 11-1 12-2 13-4 15-3 7-8 17-5 8-13 18-8 9-9 9-10 9-12 8-12 9-14 8-15 8-17 8-18 7-20 6-21 5-23 4-24 3-26 2-28 0-30-2-31-3m340-220 4 8 4 10 3 14 0 10-1 12-3 13-5 15-4 7-9 16-5 8-14 17-9 9-9 8-11 8-12 9-13 7-14 8-15 7-18 7-18 5-20 5-21 4-23 3-25 2-26 0-28-1-29-4-31-5m351-201 5 9 3 11 2 13-1 11-2 12-3 13-6 14-4 7-10 15-6 8-15 16-8 8-10 8-11 8-13 7-13 8-15 6-16 7-17 5-19 5-20 4-22 3-23 1-24 1-26-2-28-2-29-5-31-8m362-181 4 9 3 11 1 13-1 11-3 11-4 13-6 14-4 7-11 15-7 8-15 15-9 7-11 8-11 7-13 7-13 6-15 6-17 6-17 5-19 4-21 3-21 1-24 1-24-1-26-3-28-4-29-6-30-9m370-163 4 9 2 11 0 13-1 11-3 11-5 13-7 13-5 7-11 15-7 7-17 14-9 7-11 7-12 6-13 7-14 5-15 6-17 4-18 4-19 3-20 2-22 0-23-1-25-2-26-4-27-6-28-8-30-10m379-143 3 9 1 12 0 13-2 11-4 11-5 12-8 13-5 7-12 14-7 7-17 13-10 7-11 6-12 6-13 5-15 6-15 4-17 4-18 3-19 2-21 0-22 0-23-2-24-3-26-6-27-7-28-9-29-12m385-124 3 9 1 11-1 14-3 10-4 11-6 12-9 13-5 6-13 14-7 6-18 13-10 6-12 5-12 6-13 5-15 4-16 4-17 3-18 2-19 1-21-1-21-1-23-3-25-5-25-6-26-9-28-11-28-13m390-104 2 9 1 11-2 14-3 10-5 11-7 12-9 12-6 6-13 12-8 6-19 12-10 5-12 5-13 5-13 4-15 3-16 3-17 2-18 1-20 0-20-2-22-3-23-4-23-6-25-8-26-10-27-12-28-15m396-82 2 10 0 11-3 13-4 10-5 11-7 11-10 12-6 6-14 11-8 6-20 10-11 5-11 5-13 4-14 3-15 3-16 1-17 1-19 0-19-1-20-2-22-4-22-6-24-7-24-10-26-11-26-14-27-16m400-60 2 9-1 11-4 14-4 9-5 11-8 11-11 11-6 5-15 11-8 5-20 10-11 4-12 4-13 3-14 3-15 2-16 1-18 0-18-1-19-2-20-3-22-5-22-7-23-9-24-10-25-13-25-15-26-17m402-41 1 10-1 11-4 13-5 9-6 11-9 10-11 11-6 5-15 10-9 5-20 8-11 4-13 3-13 3-14 2-15 1-16 0-18-1-18-1-19-4-20-4-21-6-22-8-22-10-24-11-24-14-25-16-25-19m404-20 0 9-2 11-4 13-6 9-6 10-10 10-11 10-7 5-16 9-9 4-20 8-12 3-12 2-14 2-14 1-15 0-16 0-17-2-18-3-19-4-20-6-20-7-22-9-22-11-23-13-23-15-24-18-23-20m404 3 0 9-3 12-5 12-6 9-7 9-10 10-12 9-7 5-16 8-10 4-20 6-12 2-13 2-13 1-14 1-16-1-16-1-17-3-18-4-18-5-20-7-20-8-21-10-21-12-22-15-22-16-23-19-23-22m404 25-1 10-3 11-6 12-6 9-8 9-10 8-13 9-7 4-16 8-10 3-21 5-12 2-12 1-14 1-14 0-15-2-16-2-17-3-18-5-18-6-19-8-20-9-20-11-21-14-21-15-22-17-22-20-22-23m403 44-2 10-3 11-7 11-6 9-9 8-10 9-13 8-8 4-17 6-9 3-22 4-11 2-13 0-14 0-14-1-15-2-16-3-16-4-18-6-18-7-18-9-20-10-19-12-21-15-20-16-21-18-20-22-21-23m399 65-2 9-4 10-7 12-7 8-9 8-11 8-13 7-8 3-17 6-10 2-22 3-12 1-12 0-14-1-14-2-15-3-15-4-17-5-17-7-17-8-19-9-18-12-19-13-19-15-20-18-20-20-19-22-19-25m395 88-3 9-4 10-8 11-8 8-9 8-11 7-14 6-8 3-17 5-10 2-22 2-12 0-13-1-13-2-14-2-15-4-15-5-16-6-17-8-17-9-18-10-18-13-18-14-18-16-19-19-18-20-19-24-18-25m390 108-3 9-5 10-8 11-8 7-10 7-11 7-14 5-8 3-18 4-10 1-22 1-12-1-12-1-14-3-13-3-15-4-15-6-16-7-16-8-17-10-17-11-17-14-18-15-17-17-18-19-17-22-18-24-16-27m384 128-4 8-5 10-9 11-9 6-9 7-13 6-14 5-8 2-18 3-10 1-22-1-12-1-12-2-13-3-14-4-14-5-15-7-15-7-16-9-16-11-17-13-16-14-17-16-17-18-16-20-16-23-16-25-15-27m376 147-4 9-6 10-10 9-8 7-10 6-13 5-14 4-8 2-18 2-10 0-22-1-12-2-12-3-13-4-14-4-14-6-14-7-15-9-15-10-16-11-16-14-16-15-15-17-16-19-16-21-15-23-14-26-14-28m369 167-4 9-7 9-10 9-9 6-10 6-13 4-15 4-8 1-18 2-10-1-22-2-11-3-13-3-13-4-13-6-14-6-14-8-14-9-15-11-15-12-15-14-15-16-15-17-15-20-15-22-14-24-13-26-12-29m360 184-4 8-8 9-10 9-9 5-11 5-13 4-15 3-8 1-18 0-10 0-22-4-11-3-12-4-13-5-13-6-13-7-14-9-14-10-14-11-14-13-15-15-14-16-14-19-14-20-13-23-13-25-12-27-11-29m350 202-5 8-8 9-11 8-9 5-11 4-13 4-15 2-8 0-19-1-9-1-22-5-11-4-12-4-12-6-13-7-13-8-13-9-13-11-14-12-13-14-14-16-13-17-13-19-13-21-12-24-11-25-10-28-9-30m338 223-6 8-8 8-12 7-9 5-11 3-14 3-15 1-8 0-18-2-10-1-21-6-11-5-12-5-12-6-12-8-12-8-13-10-13-12-13-13-12-14-13-17-12-18-12-19-12-22-11-24-9-26-9-28-8-31m326 240-6 8-9 7-11 7-10 4-12 3-13 2-15 1-9-1-18-2-9-3-21-7-11-5-11-6-12-7-11-8-12-9-13-11-12-12-12-13-12-15-12-17-11-19-11-20-10-23-10-24-8-27-8-28-6-31m313 257-6 7-9 7-12 6-10 4-12 2-13 1-16 0-8-1-18-4-9-3-21-8-10-5-11-7-11-7-12-9-11-10-12-11-11-13-12-14-11-16-11-17-10-20-10-21-9-23-8-25-7-26-6-29-4-31m298 273-6 7-10 6-12 6-10 3-12 2-13 0-16-1-8-1-17-5-10-3-20-9-10-6-11-7-10-8-11-9-11-11-11-12-11-13-11-15-10-16-10-18-10-20-8-21-8-24-7-25-6-27-4-29-3-32m285 288-7 6-10 6-13 6-10 2-12 1-13 0-15-2-9-1-17-6-9-4-19-10-10-6-11-8-10-9-10-9-11-12-10-12-10-14-10-15-10-17-9-18-8-20-8-22-7-24-5-26-5-27-2-30-1-31m269 302-8 6-10 6-12 4-11 2-12 1-13-1-15-3-8-2-17-7-9-4-19-11-10-7-9-8-10-10-10-10-10-12-10-12-9-15-9-16-9-17-8-19-7-21-6-22-6-24-4-26-3-27-1-30 1-31m252 316-8 6-10 5-13 3-11 2-12 0-13-2-15-3-8-3-16-7-9-5-18-13-9-7-10-9-9-9-9-11-9-12-9-14-9-15-8-16-8-18-7-19-6-21-5-23-4-24-3-26-1-28 0-29 2-32m235 330-8 5-10 5-13 3-11 0-12 0-13-2-15-4-7-3-17-9-8-5-18-13-9-8-9-9-8-10-9-11-9-13-8-14-8-15-8-17-6-18-6-19-6-22-4-22-3-25-1-26 0-28 1-29 4-31m219 340-8 4-10 4-14 3-10 0-12-1-13-3-15-5-7-4-16-9-8-5-17-14-9-9-8-9-8-11-9-12-7-13-8-14-7-16-7-17-5-18-5-20-4-21-3-23-2-25 0-26 2-28 3-29 5-31m201 351-9 5-11 3-13 1-11 0-12-2-13-3-14-6-7-4-15-10-8-6-16-15-8-9-8-10-8-11-7-12-7-13-7-15-6-16-6-17-5-19-4-20-2-22-2-23 0-25 1-26 3-28 5-29 7-30m181 362-9 4-11 3-13 0-11 0-12-3-12-4-14-6-7-5-15-10-8-7-15-15-7-10-8-10-7-11-7-13-6-14-6-15-6-16-4-18-4-18-3-21-2-22-1-23 1-24 3-27 4-27 7-29 8-30m163 370-8 4-12 2-13 0-11-1-11-3-13-5-13-7-7-5-15-11-7-7-14-16-7-10-7-11-7-11-6-13-6-14-5-16-4-16-4-18-3-19-2-21-1-21 1-24 2-24 4-26 6-27 8-29 10-29m144 378-9 3-12 1-13 0-11-2-11-4-12-6-13-7-7-5-14-12-6-8-14-17-6-10-7-11-6-12-5-13-5-15-4-15-4-17-3-18-2-19 0-21 0-22 2-23 4-24 5-26 8-27 9-28 12-29m122 386-9 3-11 1-14-1-10-3-11-4-12-6-13-9-6-5-14-13-6-7-13-18-6-10-5-12-6-12-5-14-4-14-4-16-2-17-2-18-1-19 0-21 2-22 3-23 4-24 7-25 8-27 11-27 13-29m104 391-9 2-11 1-14-2-10-3-11-5-12-7-12-9-6-6-12-13-6-8-12-19-5-10-5-12-5-13-4-13-3-15-3-16-2-17-1-18 0-20 2-20 3-22 4-23 6-24 8-25 10-25 13-27 14-28m82 396-10 2-11 0-13-3-10-4-11-5-11-7-12-10-6-6-11-14-6-9-10-19-5-11-5-12-3-12-4-14-3-15-1-16-1-18 0-18 1-19 3-20 4-22 5-22 8-24 9-24 11-26 14-26 16-27m60 400-9 2-11-1-14-3-9-4-11-6-11-8-11-11-5-6-11-14-5-9-10-20-4-11-4-12-4-13-2-14-2-15-1-16-1-17 1-18 2-20 4-20 5-21 7-22 8-24 10-24 13-24 15-26 17-26m42 402-10 1-11-1-13-5-10-4-10-7-10-8-10-11-6-7-10-15-4-9-9-20-4-11-3-12-2-14-2-14-1-15 0-16 0-17 2-18 4-20 4-20 6-21 8-21 10-23 12-23 14-24 16-25 19-25m18 404-9 0-11-2-13-4-9-6-10-6-10-10-10-11-5-7-9-16-4-9-8-20-3-12-2-12-2-14-1-14 0-15 0-16 2-17 3-18 4-19 6-20 7-20 9-22 11-22 13-23 15-23 18-24 20-23m-3 404-9 0-11-3-13-5-9-6-9-7-10-10-9-12-5-7-8-16-4-9-6-21-3-11-2-13-1-13-1-15 1-15 1-16 3-17 4-18 5-18 6-20 9-20 10-21 12-22 14-22 16-22 19-23 21-23m-22 404-10-1-11-3-12-6-9-6-9-8-8-10-9-12-4-7-8-17-3-9-6-21-2-12-1-13-1-13 1-15 1-15 2-16 3-17 5-17 6-19 8-19 9-20 11-20 13-21 15-21 18-22 20-22 22-22m-42 403-10-2-11-4-12-6-8-7-8-8-9-11-8-12-3-8-7-17-3-9-4-22-1-12-1-12 0-14 1-14 2-15 4-16 4-17 6-17 7-18 8-19 11-19 12-20 14-20 17-20 18-21 21-20 24-21m-66 399-9-2-10-4-12-7-8-7-8-9-8-11-7-13-4-8-5-17-3-10-3-21-1-12 1-13 0-13 2-14 3-15 4-16 5-16 7-17 8-18 9-18 12-19 13-19 15-19 17-20 20-20 22-19 25-20m-86 396-9-3-10-4-11-8-8-7-8-10-7-11-6-14-3-7-5-18-2-10-2-22 0-11 1-13 1-14 3-14 3-14 5-16 6-16 8-17 9-17 10-17 12-18 15-19 16-18 18-19 21-19 23-18 26-18m-107 390-9-3-10-5-11-8-7-8-7-10-6-12-6-14-3-7-4-18-1-10-1-22 1-12 2-13 2-13 3-14 5-14 5-15 7-16 9-16 9-17 12-17 13-17 15-18 18-17 19-18 22-17 24-17 27-17m-129 384-8-4-10-5-11-9-6-9-7-10-6-12-5-14-2-8-3-18-1-10 1-22 1-12 2-12 3-13 4-14 5-14 7-15 7-15 10-16 10-16 13-17 14-16 16-17 18-17 21-16 22-16 25-16 28-15m-148 376-9-3-10-7-9-9-7-9-6-10-5-12-5-15-1-8-3-18 0-10 2-22 1-12 3-12 4-13 5-13 5-14 7-15 9-15 10-15 11-16 13-16 15-16 17-15 19-16 21-16 24-15 25-15 28-13m-165 369-9-5-9-6-9-10-6-9-6-11-4-12-4-15-1-8-1-18 0-10 3-22 2-12 3-12 5-13 5-13 7-14 8-14 9-14 11-15 12-15 14-15 16-15 17-15 20-15 22-14 24-14 26-13 29-13m-185 360-8-5-9-7-9-11-5-9-5-11-4-12-3-15-1-9 0-18 1-10 4-21 3-12 4-12 5-12 6-13 8-14 8-13 10-14 12-14 13-14 15-15 16-14 19-14 21-14 22-13 25-12 27-12 30-11m-205 349-8-5-9-7-8-11-5-9-5-12-3-13-2-15-1-8 1-18 2-10 4-21 4-12 4-12 6-12 7-12 8-13 9-14 11-13 12-14 14-13 15-14 17-13 19-13 22-13 23-12 25-12 28-10 30-9m-221 339-8-6-8-8-7-11-5-10-4-11-2-13-2-15 0-9 2-18 2-10 6-21 4-11 5-11 6-12 8-13 9-12 9-13 12-13 13-13 14-13 16-12 18-13 20-12 22-11 24-11 26-10 28-9 30-8m-238 327-8-6-7-8-7-12-4-10-4-11-2-14 0-15 0-8 3-18 2-10 7-21 5-11 6-11 7-11 8-12 9-12 11-13 12-12 13-12 15-12 17-12 19-11 20-11 23-11 24-9 26-9 29-7 31-7m-256 314-7-6-7-9-6-12-4-10-2-12-2-13 1-15 1-9 3-18 3-9 8-20 6-11 6-11 8-11 9-12 9-11 12-12 12-11 15-12 15-11 18-11 19-10 21-10 23-9 25-8 27-7 29-6 31-5m-273 300-7-7-6-9-6-13-3-10-2-12-1-13 1-15 2-8 4-18 3-9 9-20 6-11 7-10 8-11 9-11 11-11 12-11 13-11 15-11 16-11 18-10 19-9 22-9 23-8 25-7 27-6 30-5 31-3m-286 287-6-7-6-10-6-13-2-10-1-12 0-13 1-15 2-8 6-18 4-9 10-19 6-10 8-11 8-10 10-10 11-11 13-10 13-10 16-10 16-10 19-9 20-9 22-7 24-7 25-6 28-4 29-3 31-1m-301 270-6-7-6-10-4-13-2-10-1-12 1-14 2-15 3-8 6-17 4-9 11-19 7-9 8-10 9-10 11-10 11-10 13-10 14-9 16-10 17-8 19-9 21-7 22-7 24-5 26-5 27-3 30-1 31 0m-314 255-6-7-5-11-3-13-2-10 0-12 1-14 4-14 2-8 8-17 4-9 13-18 7-9 9-10 9-9 11-9 12-10 14-9 14-8 16-9 18-8 20-7 20-6 23-5 24-5 26-3 28-1 30 0 31 2m-328 237-5-8-5-10-3-13 0-11 0-12 2-13 4-15 3-7 8-17 6-8 13-18 8-9 9-9 10-8 11-9 13-9 14-8 15-8 16-8 19-6 19-6 21-6 23-4 25-3 26-1 28 0 29 1 31 4m-340 220-4-9-4-10-3-14 0-10 1-12 3-13 5-15 3-7 9-16 6-8 14-17 9-9 9-8 11-8 11-9 13-7 15-8 15-7 17-7 19-5 20-6 21-4 23-2 25-2 26 0 28 1 29 4 31 5m-351 201-5-9-3-10-2-14 1-11 1-11 4-13 6-14 3-8 10-15 6-8 15-16 9-8 10-8 11-8 12-7 13-8 15-7 16-6 17-5 19-5 20-4 22-3 23-2 25 0 26 1 27 3 30 4 30 7m-361 183-4-9-3-11-1-13 1-11 3-11 4-13 6-14 5-7 10-15 7-8 15-15 10-7 10-8 11-7 13-7 14-6 15-6 16-6 17-5 19-3 21-3 21-2 24-1 24 1 26 3 28 4 29 6 30 9m-370 163-4-8-2-12 0-13 1-11 3-11 5-13 7-13 5-7 11-15 7-7 16-14 10-7 11-7 11-7 13-6 14-6 16-5 16-5 18-3 19-3 21-2 21-1 24 1 24 2 26 4 27 6 29 8 29 10m-378 144-3-9-1-11 0-14 2-11 3-11 6-12 8-13 5-7 12-14 7-7 17-13 10-7 11-6 12-6 13-6 14-5 16-4 17-4 18-3 19-2 20-1 22 1 23 1 25 4 26 5 26 7 28 9 30 12m-385 125-3-9-1-11 2-14 2-10 4-11 6-12 9-13 5-7 13-13 7-6 18-13 10-6 12-5 12-6 14-5 14-4 16-4 17-2 18-2 19-1 21 0 22 2 23 3 24 4 25 7 27 8 27 11 29 13m-391 104-2-9-1-11 2-14 3-10 5-11 7-12 9-12 6-6 13-12 8-6 19-12 10-5 12-5 13-5 13-4 15-3 16-3 17-2 18-1 20 0 20 2 22 3 23 4 24 6 24 8 26 10 27 12 28 15m-396 82-2-9 0-12 3-13 3-10 6-11 7-11 10-12 6-6 14-11 8-6 19-11 11-4 12-5 13-4 13-3 15-3 16-2 18-1 18 0 19 1 21 2 21 4 23 6 23 7 25 9 25 11 26 14 27 16m-399 62-1-9 0-12 4-13 4-10 6-10 8-11 10-11 6-5 15-11 9-5 19-10 11-4 12-4 14-3 14-3 15-2 16-1 17 0 18 1 19 2 21 4 21 5 22 7 23 8 24 11 25 13 25 15 26 17m-402 40-1-10 1-11 4-13 5-10 6-10 9-10 11-11 7-5 15-10 9-4 20-9 11-4 12-3 13-2 15-2 15-1 16-1 17 1 18 2 19 3 20 5 21 6 22 8 23 10 23 12 24 14 25 16 25 19m-404 19-1-10 2-11 5-13 5-9 7-10 9-10 11-10 7-5 16-9 9-5 20-7 12-3 12-3 13-2 15-1 15-1 16 1 17 2 18 2 19 4 20 6 21 7 21 9 22 11 23 13 23 15 24 17 24 20m-404 0 0-9 3-11 5-13 6-9 7-9 10-10 12-9 7-5 16-8 9-4 21-6 12-3 12-2 13-1 15 0 15 0 16 1 17 3 18 4 19 5 19 7 20 8 21 10 22 12 22 14 22 16 23 19 23 21m-404-22 1-10 3-11 6-12 6-9 8-9 10-8 13-9 7-4 17-8 9-3 21-5 12-2 13-1 13-1 14 1 16 1 16 2 16 4 18 4 18 6 19 8 20 10 20 11 21 13 21 15 22 18 22 20 22 22m-403-44 2-10 3-10 7-12 6-9 9-8 10-9 13-8 7-4 17-6 10-3 21-5 12-1 13-1 13 1 15 1 15 2 15 3 17 4 17 5 19 7 18 9 19 10 20 12 20 15 21 16 21 18 20 21 21 24m-399-63 1-10 5-10 7-12 7-8 8-8 11-8 14-7 7-4 17-6 10-2 22-3 12-1 12 0 14 1 14 2 15 2 16 4 16 5 17 7 18 8 18 9 19 12 19 13 19 15 20 17 20 20 19 22 20 24m-396-84 2-9 5-10 8-11 7-8 9-8 12-7 13-7 8-3 18-5 9-1 22-2 12-1 13 1 13 2 14 2 15 4 15 4 17 6 16 8 17 9 18 10 18 12 19 14 18 17 19 18 19 20 18 24 18 25m-390-105 2-9 6-10 8-10 8-8 9-7 12-7 14-6 8-2 18-4 9-1 22-1 12 0 13 2 13 2 14 3 15 4 15 6 16 7 16 8 17 10 17 11 17 13 18 15 17 17 18 20 18 21 17 24 17 27m-385-126 3-8 6-10 9-11 8-6 10-7 12-6 14-5 9-2 17-3 10-1 22 0 12 1 13 2 13 3 14 4 14 5 15 7 15 7 16 10 16 10 17 13 16 14 17 16 17 18 16 20 17 22 16 25 15 28m-377-146 3-9 7-10 9-9 8-7 11-6 12-5 15-5 8-2 18-2 10 0 22 1 11 2 13 3 13 4 13 4 14 6 15 7 15 8 15 10 16 12 16 13 16 15 16 17 15 19 16 21 15 23 15 25 14 29m-370-165 5-9 6-9 10-9 9-6 11-6 12-4 15-4 8-1 19-1 10 0 21 3 12 2 12 4 13 4 13 5 14 7 14 8 14 9 15 11 15 12 15 14 15 16 15 18 15 19 14 22 14 24 13 27 12 29m-359-186 5-8 7-9 11-9 9-5 10-5 13-4 15-3 9-1 18 0 10 1 21 4 12 3 12 4 12 5 13 6 13 8 14 8 14 10 14 12 14 13 15 15 14 16 14 19 14 20 13 23 12 25 12 27 11 29m-349-204 5-8 7-9 11-8 9-5 12-5 13-3 15-2 8-1 18 1 10 1 21 5 12 4 12 4 12 6 12 7 13 8 14 9 13 11 14 12 13 13 14 16 13 17 13 19 13 21 12 24 12 25 10 28 9 30m-339-221 6-8 8-8 11-7 10-5 11-4 13-2 16-2 8 1 18 1 10 2 21 6 11 4 12 6 11 6 13 7 12 9 13 10 13 11 13 13 12 15 13 16 13 18 12 20 11 22 11 23 10 26 9 29 7 30m-326-239 6-8 9-7 11-7 10-4 12-3 13-3 15 0 8 0 18 3 10 3 21 7 11 4 11 6 11 7 12 8 12 10 13 10 12 12 12 14 12 15 12 17 11 18 11 21 11 22 9 24 9 27 7 29 6 30m-313-256 6-7 9-7 12-6 10-4 12-2 13-2 15 0 8 1 18 4 10 3 20 8 11 5 11 6 11 8 11 8 12 10 12 11 11 13 12 14 11 16 11 17 11 19 10 21 9 23 8 25 8 27 6 29 4 31m-301-271 7-7 9-6 13-6 10-3 12-2 13-1 15 1 8 2 18 4 10 3 19 10 11 5 10 7 11 8 11 10 11 10 11 12 11 13 11 15 10 16 11 18 9 20 9 21 8 23 7 26 6 27 4 29 3 31m-286-286 7-6 10-6 13-6 10-2 12-1 13 0 15 2 9 2 17 5 9 4 19 10 10 7 11 7 10 9 10 10 11 11 10 12 10 14 10 15 10 17 9 19 8 20 8 22 6 23 6 26 4 28 3 29 1 31m-269-302 7-6 10-6 13-4 11-2 12-1 13 1 15 3 8 2 17 6 9 4 19 11 10 7 9 8 10 10 10 10 10 12 10 12 9 15 9 15 9 18 8 19 8 20 6 22 6 24 4 26 3 28 1 29 0 32m-254-315 8-6 10-5 13-3 11-2 11 0 14 2 15 3 8 3 16 7 9 5 18 12 9 8 10 8 9 10 9 11 10 12 9 13 8 15 8 17 8 17 7 20 6 21 6 22 4 24 3 26 1 28 0 30-3 31m-235-329 8-5 10-5 13-3 11 0 12 0 13 2 15 4 8 4 16 8 8 5 18 13 9 8 9 9 8 10 9 11 9 13 8 14 8 15 7 17 7 18 6 19 5 22 5 23 3 24 1 26 0 28-2 29-4 32m-218-341 8-4 11-4 13-3 11 0 11 1 14 3 14 5 7 4 16 9 8 6 17 14 9 8 8 10 8 10 8 12 8 13 8 14 7 16 6 17 6 19 5 19 4 22 3 23 1 25 0 26-1 28-4 29-5 31m-200-352 9-5 10-3 14-2 11 1 11 1 13 4 14 6 8 3 15 10 8 6 16 15 8 9 8 10 8 11 7 12 8 13 7 15 6 16 5 17 5 19 4 20 3 22 2 23 0 25-1 26-3 27-4 30-7 30m-183-361 8-4 11-3 14-1 11 1 11 2 13 5 14 6 7 4 15 11 8 6 15 16 7 9 8 10 7 12 7 12 7 14 6 15 5 16 5 18 4 19 3 20 2 22 0 23 0 25-3 26-4 27-6 29-9 30m-164-369 9-4 11-2 13 0 11 1 11 3 13 5 13 7 7 5 15 11 7 7 14 16 7 10 7 11 7 12 6 12 6 15 5 15 4 16 4 18 3 19 2 21 0 22 0 23-2 24-4 26-6 27-8 29-10 30m-144-379 9-3 12-1 13 0 11 2 11 4 12 5 13 8 7 5 14 12 6 8 14 17 6 10 7 11 6 12 5 13 5 15 5 15 3 17 3 18 2 19 1 21-1 22-2 23-3 24-6 26-7 26-10 28-11 30m-123-386 9-3 11-1 14 2 10 2 11 4 12 6 13 9 7 5 13 13 6 7 13 18 6 11 5 11 6 12 5 14 4 14 3 16 3 17 2 18 1 19 0 21-2 22-3 23-5 24-6 25-9 27-10 27-14 29m-103-391 9-2 11-1 14 2 10 3 11 5 12 7 12 9 6 6 12 13 6 8 12 19 5 10 5 12 5 13 4 13 3 15 3 16 2 17 1 18 0 20-2 20-3 22-4 23-6 24-8 24-10 26-12 27-15 28m-82-396 10-2 11 0 13 3 10 4 11 5 11 7 12 10 6 6 11 14 6 9 10 19 5 11 5 11 4 13 3 14 3 15 1 16 1 17 0 19-1 19-2 20-4 22-6 22-7 24-10 24-11 26-14 26-16 27m-60-400 9-2 11 1 14 3 9 4 11 6 11 8 11 11 5 6 11 14 5 9 10 20 4 11 4 12 4 13 2 14 2 15 1 16 1 17-1 18-2 20-4 20-5 21-7 22-8 24-10 24-13 24-15 26-17 26m-42-402 10-1 11 2 13 4 10 4 10 7 10 8 10 11 6 7 10 15 4 9 9 20 3 11 4 13 2 13 2 14 1 15 0 16-1 17-2 19-3 19-4 20-7 21-8 21-9 23-12 23-14 24-17 25-19 25m-18-404 10 0 11 1 13 5 9 5 10 7 10 9 10 12 5 6 9 16 4 9 8 20 3 12 3 12 2 14 1 14 0 15 0 16-2 17-3 18-4 19-5 20-7 21-9 21-11 22-13 23-15 23-18 24-20 24m1-404 9 0 11 3 13 5 9 5 9 8 10 9 9 12 5 7 8 17 4 9 7 21 2 11 2 13 1 13 1 15-1 15-1 16-3 17-3 18-5 18-7 20-8 20-10 21-12 22-14 22-17 22-18 23-22 23m22-404 10 1 11 3 12 6 9 6 9 8 8 10 9 12 4 7 8 17 3 9 6 22 2 11 1 13 0 13 0 15-1 15-2 16-4 17-4 17-6 19-8 19-9 20-11 20-14 21-15 21-17 22-20 22-23 22m43-403 10 2 10 3 12 7 9 6 8 8 9 11 8 13 4 7 6 17 3 10 5 21 1 12 1 13 0 13-1 14-2 16-3 15-5 17-5 17-7 18-9 19-10 19-12 20-14 20-16 21-19 21-21 21-23 20m63-399 9 2 10 4 12 7 8 7 8 9 8 11 7 13 4 8 5 17 3 9 3 22 1 12-1 13 0 13-2 14-3 15-4 16-5 16-7 17-8 18-9 18-11 19-14 19-15 19-17 20-20 20-22 19-25 20m86-396 9 3 10 4 11 8 8 8 8 9 7 11 6 14 3 8 5 17 2 10 2 22 0 12-1 13-2 13-2 14-4 15-5 15-6 16-8 17-9 17-10 18-13 18-14 18-16 18-19 19-20 18-24 19-25 18m108-390 9 3 10 5 10 8 8 8 7 10 7 11 5 14 3 8 4 18 1 10 1 22-1 12-1 12-2 14-4 13-4 15-6 15-7 16-8 16-10 17-11 17-13 17-16 18-17 17-19 18-22 18-24 17-26 16m127-384 8 4 10 5 11 9 6 8 7 10 6 12 5 15 2 8 3 18 1 10-1 22-1 11-2 13-3 13-4 14-5 14-6 15-8 15-9 16-11 16-12 17-15 16-16 17-18 17-20 16-23 17-25 15-27 16m147-377 9 4 10 6 9 9 7 9 6 10 5 12 5 15 1 8 2 18 1 10-2 22-2 12-3 12-3 13-5 14-6 14-7 14-9 15-9 15-12 16-13 16-15 16-17 15-19 16-21 16-24 15-25 14-28 14m166-369 9 4 9 7 9 10 6 9 6 10 4 13 4 15 1 8 2 18-1 10-2 22-3 12-3 12-4 13-6 13-6 14-8 14-9 14-11 15-12 15-14 15-16 15-18 15-19 15-22 15-24 13-27 14-28 12m184-360 8 5 9 7 9 10 5 9 5 11 4 13 3 15 1 8 0 18-1 10-3 22-3 11-4 12-5 13-6 13-8 13-8 14-10 14-12 14-13 14-14 15-17 14-18 14-21 14-22 13-25 13-27 12-29 11m202-350 8 5 9 8 8 11 5 9 4 11 4 13 2 15 0 8-1 19-1 9-5 22-4 11-4 12-6 12-7 13-8 13-9 13-11 13-12 14-14 13-15 14-18 13-19 13-21 13-24 12-25 11-28 10-30 9m223-338 8 6 8 8 7 12 5 9 3 11 3 14 1 15 0 8-2 18-1 10-7 21-4 11-5 12-6 12-8 12-9 12-10 13-11 13-13 13-15 12-16 13-18 12-20 12-21 12-24 11-26 9-29 9-30 8m240-326 8 6 7 9 7 11 4 10 3 12 2 13 1 15-1 8-2 18-3 10-7 21-5 11-5 11-7 12-8 11-10 12-10 13-12 12-14 12-15 12-17 12-18 11-21 11-22 11-25 9-26 9-29 7-31 6m257-313 7 6 7 9 6 12 4 10 2 12 2 13-1 15-1 9-3 17-3 10-8 20-6 11-6 11-7 11-9 11-10 12-11 12-13 11-14 12-16 11-17 11-19 10-21 10-23 9-25 9-27 7-29 6-31 4m272-300 7 7 6 9 6 13 3 10 2 12 1 13-1 15-2 8-4 18-3 9-9 20-6 11-7 10-8 11-9 11-11 11-12 11-13 11-15 11-16 10-18 11-19 9-22 9-23 8-25 7-28 6-29 5-31 2m286-286 6 7 6 10 6 13 2 10 1 12 0 13-2 15-2 9-5 17-4 9-10 19-7 10-7 11-9 10-10 10-11 11-12 10-14 10-15 10-17 10-19 9-20 8-22 8-23 6-26 6-27 4-30 3-31 1"/><path fill="none" stroke="#8f8b84" stroke-width="0.8" stroke-opacity="0.4" stroke-linecap="round" stroke-linejoin="round" d="m660 450 9-7 5-7 6-7 6-8 6-10 5-11 7-20 6-23 2-18 2-20 0-10-1-23-3-25-5-26-8-29-11-31-15-33-8-17-10-17-11-18-12-19m30 385 9-7 6-6 7-7 6-8 7-9 6-11 9-19 7-23 5-17 3-20 1-10 1-23-1-24-3-27-5-30-9-32-11-33-7-18-9-19-9-18-11-20m-3 386 10-7 7-5 7-6 7-8 7-8 7-10 10-19 10-22 6-17 4-19 2-10 3-23 1-24 0-28-3-29-6-33-9-34-5-19-7-19-8-19-9-20m-35 384 10-6 7-4 8-6 8-7 8-8 8-9 11-18 12-21 7-16 6-19 3-10 5-22 3-25 2-27 0-30-3-32-6-36-4-18-5-20-6-20-8-21m-68 380 11-4 8-4 8-5 8-6 9-8 8-8 14-16 13-20 9-16 8-18 3-10 7-22 6-24 4-27 2-29 1-33-3-36-2-19-3-20-5-20-5-22m-103 372 11-4 8-3 9-4 8-5 10-7 9-8 15-15 15-18 10-16 9-17 5-9 9-21 7-24 7-26 5-30 3-32 0-36 0-19-2-20-2-21-3-22m-135 361 11-2 8-3 9-3 9-5 10-6 10-7 16-13 17-18 11-14 11-16 5-9 10-20 10-23 9-26 7-29 6-32 4-36 1-19 0-20-1-21-1-22m-165 349 11-2 9-1 9-3 9-4 11-5 10-6 18-12 18-16 12-13 12-15 6-9 13-19 11-22 11-24 10-29 9-31 7-35 3-19 2-20 1-21 0-22m-195 332 11-1 9-1 9-2 10-3 11-4 11-5 18-10 19-15 14-12 13-14 7-8 14-18 13-21 13-24 13-27 11-30 10-35 4-19 4-20 3-20 2-22m-223 314 12 1 8 0 10-1 10-3 11-3 11-4 19-9 21-12 14-11 15-13 7-7 16-17 15-20 15-22 15-26 13-30 13-34 6-18 5-19 5-21 4-22m-249 295 12 2 8 0 9 0 11-1 11-2 12-3 20-7 21-11 15-9 16-12 9-6 16-16 17-18 17-21 18-24 16-28 16-33 7-17 8-19 6-20 7-21m-276 269 11 3 9 1 9 1 10 0 12-1 12-2 20-6 22-8 17-8 16-10 9-6 18-14 19-16 19-20 19-23 19-27 18-30 9-17 9-18 9-20 8-20m-298 244 11 4 8 2 9 1 11 1 11 0 12-2 21-3 23-7 17-7 17-8 10-5 19-13 19-15 21-17 21-22 21-25 21-29 10-16 11-17 10-19 10-20m-318 220 10 4 9 3 9 2 10 2 11 0 13 1 21-2 23-5 17-5 19-7 9-4 20-11 21-13 23-16 22-19 24-23 23-27 12-15 12-17 11-17 12-19m-336 189 11 6 8 3 9 3 10 2 11 2 12 1 21 0 24-3 17-3 19-6 10-3 21-9 22-11 23-15 25-17 25-21 25-25 13-14 13-16 14-16 13-18m-351 162 10 6 7 4 9 4 10 3 11 3 12 3 21 2 24-1 17-2 20-4 10-2 22-7 23-9 24-12 26-15 27-19 28-22 14-13 14-14 15-16 15-16m-364 128 9 7 7 5 9 4 9 5 11 3 12 4 20 3 24 2 18-1 20-2 10-2 22-4 24-8 25-9 27-13 29-16 30-20 15-12 15-13 16-14 16-15m-373 97 8 8 7 5 8 5 9 5 10 5 12 4 20 6 23 3 18 1 20 0 11-1 22-2 24-5 27-8 28-10 29-14 32-17 16-10 17-12 17-12 17-14m-380 63 8 8 6 6 7 6 9 6 10 5 11 6 20 7 23 5 18 3 20 1 10 0 23-1 24-3 27-6 29-8 31-11 32-15 17-9 18-10 18-11 18-12m-385 33 7 9 6 6 7 7 8 6 9 7 11 6 19 9 22 8 18 4 19 3 11 1 22 1 25-1 27-3 30-5 31-8 34-12 18-7 18-8 19-10 20-10m-386-4 6 10 5 7 7 7 7 7 9 7 10 7 18 11 22 9 17 6 19 5 11 2 22 3 25 1 27 0 30-3 32-6 35-8 18-6 19-7 20-7 20-9m-384-37 6 10 4 7 6 8 7 8 8 8 9 8 17 12 21 11 17 7 19 6 10 3 22 5 25 3 27 2 29 0 33-3 36-6 18-4 20-5 20-6 21-7m-380-69 5 11 4 8 4 8 7 8 7 9 9 8 16 14 20 13 15 8 18 8 10 4 22 7 24 6 27 4 30 2 32 0 36-2 19-3 20-3 21-4 21-6m-372-102 4 11 3 8 4 9 6 8 6 10 8 9 15 15 19 15 15 10 17 9 10 5 21 8 23 8 27 6 29 5 33 3 36 1 19-1 20-2 21-2 22-3m-362-134 2 11 3 8 3 9 5 9 5 10 7 10 14 16 17 17 14 11 16 11 10 5 20 11 22 10 26 8 29 8 32 6 36 4 19 1 20 0 21-1 22-1m-348-166 2 11 2 9 2 9 4 9 5 11 6 10 12 18 16 18 13 12 15 12 9 6 19 13 22 11 25 11 28 10 31 9 35 7 19 2 21 2 21 2 22 0m-333-195 1 11 1 9 2 9 3 10 4 11 5 11 10 18 15 19 12 14 14 13 8 7 18 14 21 13 24 13 27 13 30 11 35 10 19 4 20 4 20 3 22 2m-315-223 0 12 0 8 1 10 2 10 3 11 5 11 8 19 13 21 11 14 13 15 7 7 17 16 19 15 23 15 26 15 30 14 33 12 18 6 20 6 20 5 22 4m-294-250-2 11 0 9 0 9 1 11 2 11 3 12 7 20 11 21 9 15 12 16 6 9 15 16 18 17 22 18 24 17 28 16 32 16 18 8 19 7 20 6 21 7m-269-276-3 12-1 8 0 10 0 10 1 11 2 12 6 20 9 23 8 16 10 17 6 8 14 18 17 19 19 18 23 19 27 19 31 18 17 9 18 9 20 8 20 8m-247-296-4 11-2 8-1 9-1 11 0 11 1 12 4 21 7 23 7 17 8 17 5 9 12 20 15 19 18 21 21 21 25 21 29 21 17 11 17 10 18 10 20 10m-218-318-5 11-3 8-2 9-1 10-1 12 0 12 2 21 4 23 6 17 7 19 4 9 10 20 14 22 16 22 19 22 23 23 27 24 15 12 17 11 17 12 19 12m-191-336-5 10-3 8-3 9-3 10-2 11-1 13 0 20 3 24 3 18 6 19 3 10 9 21 11 22 14 23 17 25 21 25 25 26 14 13 15 13 17 13 17 13m-159-351-6 10-4 7-4 9-4 10-2 10-3 13-2 21 1 24 2 17 4 20 2 10 7 22 9 23 12 24 15 26 18 27 23 28 13 14 14 15 15 14 17 15m-128-364-7 9-5 7-4 9-5 9-3 11-4 12-3 20-2 24 1 18 2 20 1 10 5 22 7 24 10 25 13 27 16 29 20 29 12 16 12 15 14 16 16 16m-97-373-8 8-5 7-5 8-5 9-5 10-4 12-6 20-3 23-2 18 1 20 1 11 2 22 5 24 8 26 10 29 14 29 17 32 10 16 11 17 13 17 14 17m-63-381-9 8-5 6-6 8-6 8-6 10-5 11-7 20-6 23-3 18-1 20 0 10 1 23 2 24 6 27 7 29 11 31 15 33 9 17 9 17 11 18 12 19m-29-385-9 7-6 6-7 7-6 8-7 9-6 11-9 19-8 22-4 18-3 19-1 11-1 22 1 25 2 27 6 30 8 31 12 34 7 18 8 18 9 19 11 20m4-386-10 6-7 6-7 6-7 7-7 9-7 10-11 18-9 22-6 17-4 20-2 10-3 22-2 25 1 27 3 30 5 32 9 35 6 18 7 19 7 20 9 20m36-384-10 5-7 5-8 5-8 7-8 8-8 10-12 17-11 21-7 16-7 19-3 10-5 22-3 25-2 27 0 30 3 32 5 36 4 19 5 19 6 20 7 21m71-379-11 5-8 4-8 5-8 6-8 7-9 9-14 16-13 20-8 16-8 18-4 10-7 21-5 24-4 27-3 30 0 33 3 35 2 20 3 19 5 21 5 22m102-373-11 4-8 3-9 4-8 5-10 7-9 8-15 15-15 18-10 15-9 18-5 9-9 21-7 24-7 26-5 29-3 33-1 36 1 19 2 20 2 21 3 22m135-361-11 2-8 3-9 3-9 5-10 6-10 7-16 13-17 18-11 14-11 16-5 9-10 20-10 23-9 26-7 29-6 32-4 36-1 19 0 20 1 21 1 22m165-349-11 2-9 1-9 3-9 4-11 5-10 6-18 12-18 15-12 14-12 15-6 8-13 19-11 22-12 25-10 28-8 32-7 35-3 19-2 20-1 21-1 22m196-332-11 1-9 1-9 2-10 3-11 4-11 5-18 10-19 15-14 12-13 14-7 8-14 18-13 21-13 24-13 27-11 31-9 34-5 19-3 20-3 21-3 22m223-316-12 0-8 0-9 1-11 2-11 3-11 4-19 9-21 12-14 11-15 13-8 7-15 17-15 19-15 23-15 26-14 29-13 34-6 18-6 20-5 20-4 22m251-293-12-2-8 0-10 0-10 1-11 2-12 4-20 7-21 10-16 10-15 12-9 6-16 16-17 18-17 21-17 24-17 29-15 32-8 18-7 19-6 20-7 21m275-271-11-3-9-1-9-1-11 1-11 1-12 2-20 5-23 9-16 8-16 10-9 6-18 14-19 16-19 20-19 23-18 27-19 30-9 17-9 19-8 19-8 20m297-245-11-4-8-1-9-2-11-1-11 1-12 1-21 3-23 7-17 7-17 8-10 5-19 13-19 15-21 17-21 22-21 25-21 29-10 16-11 17-10 19-10 20m318-220-11-4-8-3-9-2-10-1-11-1-13-1-21 2-23 5-17 5-19 7-9 5-20 10-21 13-23 16-22 19-24 23-23 27-12 15-12 17-11 17-12 19m336-189-10-6-8-3-9-3-10-3-11-1-13-2-21 0-24 3-17 4-19 5-10 4-21 8-22 12-23 14-25 17-25 21-26 25-13 14-13 15-13 17-13 18m351-161-10-6-7-4-9-4-10-4-11-2-12-3-21-2-24 1-17 2-20 4-10 2-22 7-23 9-24 12-26 15-27 19-28 22-14 13-15 14-14 15-15 17m364-128-9-7-7-5-9-4-9-4-11-4-12-3-20-4-24-2-18 1-20 2-10 2-22 5-24 7-26 10-26 13-29 16-30 20-15 12-15 13-16 14-16 15m373-98-8-8-7-5-8-5-9-5-10-5-12-4-20-5-24-4-18-1-20 1-10 0-23 3-24 6-26 7-28 11-30 13-31 18-16 10-17 12-17 12-17 14m380-65-7-9-7-5-7-6-9-6-9-6-12-5-19-7-24-6-17-2-20-2-11 0-22 1-25 3-27 6-28 7-31 12-33 14-17 9-18 10-18 11-18 12m384-31-7-9-5-6-7-7-8-6-10-7-10-6-19-9-23-7-18-4-19-3-11-1-22-1-25 1-27 3-29 5-32 9-34 12-18 7-18 8-19 10-19 10m386 2-6-10-5-7-7-7-7-7-9-7-10-7-18-11-22-9-17-6-19-5-10-2-23-3-24-1-28 0-29 3-33 5-34 9-19 5-19 7-20 8-20 8m384 38-6-10-4-7-6-8-7-8-8-8-9-8-18-11-21-12-16-7-19-6-10-3-22-5-25-3-27-2-30 0-32 3-36 6-19 4-19 5-20 6-21 8m380 68-5-11-4-8-4-8-7-8-7-9-9-8-16-14-20-13-16-8-18-8-9-4-22-7-24-6-27-4-30-2-33 0-35 2-19 3-20 3-21 4-21 6m371 102-3-11-3-8-5-9-5-8-6-10-8-9-15-15-19-15-15-10-17-9-10-5-21-8-23-8-27-6-29-5-33-3-36 0-19 0-20 2-21 2-22 4m362 133-2-11-3-8-4-9-4-9-6-10-7-10-13-16-18-17-14-11-17-11-9-5-20-10-23-10-25-9-29-7-33-6-35-3-19-1-21 0-21 0-22 2m350 164-2-11-2-9-2-9-4-9-5-11-6-10-12-18-16-18-13-12-15-12-9-6-19-12-22-12-25-11-28-10-31-9-36-7-19-2-20-2-21-2-22 0m333 195-1-11-1-9-2-9-3-10-4-11-5-11-10-18-15-19-12-14-14-13-8-7-18-14-20-13-24-13-27-13-31-11-35-10-18-4-20-4-21-3-22-2m315 223 0-12 0-8-1-10-2-10-3-11-5-11-9-19-12-21-11-14-13-15-7-7-17-16-20-15-22-15-26-15-30-14-33-12-19-6-19-6-21-4-21-5m294 250 2-12 0-8 0-10-1-10-2-11-3-12-8-20-10-21-10-15-11-16-7-9-15-16-18-17-22-17-24-17-28-17-33-15-17-8-19-7-20-7-21-6m270 275 3-11 1-9 1-9-1-11-1-11-2-12-5-20-9-23-8-16-10-17-6-8-14-18-17-19-19-18-23-19-27-19-31-19-17-9-18-8-19-9-21-8m246 297 3-11 2-8 2-10 0-10 0-11-1-13-4-20-6-23-7-17-9-17-5-10-12-19-15-19-18-21-22-21-25-21-29-21-16-10-17-10-19-10-20-10m220 317 5-11 2-8 2-9 2-10 1-12 0-12-2-21-5-24-5-17-7-18-5-10-10-20-13-21-17-22-19-22-23-23-27-24-16-11-16-12-18-12-19-11m192 335 6-10 3-8 3-9 3-10 1-12 2-12 0-21-3-24-4-17-5-19-4-10-9-21-11-22-14-23-17-25-21-25-25-26-14-13-16-13-16-13-18-13m161 351 6-10 4-8 4-8 3-10 3-11 2-12 2-21-1-24-2-18-4-19-2-10-7-22-10-23-12-24-15-26-19-27-22-28-13-14-14-14-16-15-16-14m130 363 7-9 5-8 4-8 4-9 4-11 3-12 4-21 1-24 0-18-2-19-2-10-5-23-7-23-10-26-13-27-16-28-21-30-11-15-13-15-14-16-15-16m98 373 8-9 5-6 5-8 5-9 5-11 4-11 5-20 4-24 1-18-1-20-1-10-3-23-5-24-8-26-10-28-14-30-17-31-11-16-11-17-13-17-14-17"/><path fill="none" stroke="#e6e1d6" stroke-width="1.2" stroke-opacity="0.75" stroke-linecap="round" stroke-linejoin="round" d="m992 450-.2 14-2 27.9-4 27.7-2.8 13.7-6.9 27.1-4.2 13.4-9.7 26.2-5.6 12.8-12.5 25.1-14.3 24-7.8 11.7-8.2 11.3-17.5 21.8-19.1 20.5-20.5 19.1-10.7 8.9-11.1 8.6-23 16-24 14.3-25.1 12.5-12.8 5.6-26.2 9.7-13.4 4.2-13.5 3.7-27.3 6-27.7 4-27.9 2-14 .2-14-.2-27.9-2-27.7-4-13.7-2.8-27.1-6.9-13.4-4.2-26.2-9.7-12.8-5.6-25.1-12.5-24-14.3-23-16-11.1-8.6-21.1-18.3-10.1-9.7-19.1-20.5-8.9-10.7-8.6-11.1-16-23-7.3-11.9-13.4-24.5-11.7-25.5-9.7-26.2-4.2-13.4-6.9-27.1-2.8-13.7-4-27.7-2-27.9-.2-14 .2-14 2-27.9 4-27.7 6-27.3 3.7-13.5 4.2-13.4 9.7-26.2 5.6-12.8 12.5-25.1 14.3-24 7.8-11.7 16.8-22.4 8.9-10.7 19.1-20.5 10.1-9.7 21.1-18.3 22.4-16.8 23.6-15.1 12.1-7 12.4-6.4 25.5-11.7 13-5.1 26.6-8.8 27.1-6.9 13.7-2.8 27.7-4 27.9-2 14-.2 28 1 27.8 3 13.8 2.2 27.3 6 13.5 3.7 13.4 4.2 26.2 9.7 12.8 5.6 25.1 12.5 24 14.3 23 16 11.1 8.6 21.1 18.3 10.1 9.7 19.1 20.5 8.9 10.7 8.6 11.1 16 23 7.3 11.9 13.4 24.5 11.7 25.5 5.1 13 8.8 26.6 3.7 13.5 6 27.3 4 27.7 2 27.9 .2 14m6 0-1 27.9-1.2 13.9-1.7 13.9-4.9 27.5-6.8 27.1-8.7 26.6-5 13-5.5 12.8-12.3 25.1-14 24.2-7.7 11.7-16.5 22.5-8.8 10.8-18.8 20.7-9.9 9.8-10.3 9.5-21.5 17.9-22.6 16.3-11.8 7.5-24.3 13.8-25.2 12.1-12.9 5.4-13 4.9-26.7 8.5-27.1 6.5-27.6 4.7-13.8 1.5-27.9 1.8-14 .1-27.9-1.2-13.9-1.4-13.9-1.8-27.4-5.1-13.6-3.3-26.8-8-26.1-9.8-25.4-11.7-24.5-13.4-11.9-7.3-23-15.9-11-8.6-21.2-18.2-10.1-9.6-9.7-10-18.4-21.1-16.9-22.2-15.3-23.4-7.1-12.1-6.5-12.3-11.9-25.3-10.1-26-8.2-26.7-3.4-13.6-2.9-13.6-4.4-27.6-1.5-13.9-1.4-27.9 .5-27.9 .9-14 3.5-27.7 5.3-27.4 3.4-13.6 3.9-13.4 9.1-26.4 11-25.7 6.2-12.5 13.6-24.4 7.4-11.8 7.9-11.6 16.9-22.2 18.4-21.1 9.7-10 20.5-18.9 10.8-8.9 22.4-16.7 11.6-7.8 11.9-7.3 24.5-13.4 25.4-11.7 26.1-9.8 13.3-4.2 27.1-7.1 13.7-2.8 27.6-4.1 27.8-2.2 14-.4 14 .1 27.9 1.8 13.8 1.5 27.6 4.7 27.1 6.5 13.4 4 26.3 9.4 25.6 11.2 12.5 6.3 12.3 6.7 23.8 14.6 22.6 16.3 10.9 8.8 20.9 18.6 9.9 9.8 18.8 20.7 8.8 10.8 16.5 22.5 7.7 11.7 14 24.2 12.3 25.1 5.5 12.8 9.6 26.2 4.1 13.4 6.8 27.1 4.9 27.5 1.7 13.9 1.2 13.9 1 27.9m6 0-1 27.9-1.2 13.9-3.8 27.6-2.6 13.7-6.7 27.1-8.5 26.5-5 13.1-5.4 12.8-12.1 25.1-13.8 24.3-15.4 23.2-8.3 11.2-17.8 21.5-9.4 10.3-9.8 9.9-20.6 18.9-21.8 17.4-11.3 8.1-11.6 7.7-24 14.2-12.4 6.5-25.3 11.7-26.1 9.9-13.2 4.2-13.5 3.8-27.2 6.2-13.7 2.4-27.7 3.4-27.8 1.4-14 0-27.8-1.4-27.7-3.4-13.7-2.4-13.7-2.8-27-7.2-13.2-4.2-26.1-9.9-25.3-11.7-24.5-13.4-11.9-7.3-22.9-15.8-11.1-8.5-10.7-8.9-20.6-18.9-19.2-20.2-9.1-10.6-8.7-10.9-16.2-22.7-7.5-11.7-13.8-24.3-12.1-25.1-5.4-12.8-9.5-26.3-4-13.3-6.7-27.1-2.6-13.7-3.8-27.6-1.2-13.9-1-27.9 1-27.9 2.8-27.7 2.2-13.8 5.7-27.3 3.6-13.5 4-13.3 9.5-26.3 5.4-12.8 12.1-25.1 13.8-24.3 15.4-23.2 8.3-11.2 8.7-10.9 18.5-20.9 19.9-19.5 10.5-9.3 21.8-17.4 11.3-8.1 11.6-7.7 24-14.2 24.9-12.6 12.8-5.6 26.1-9.9 13.2-4.2 27-7.2 13.7-2.8 27.5-4.4 27.8-2.4 13.9-.4 27.9 .4 13.9 1 13.9 1.4 27.5 4.4 27.2 6.2 26.7 8 13.2 4.8 25.7 10.7 12.5 6.1 12.4 6.5 24 14.2 22.9 15.8 11.1 8.5 10.7 8.9 20.6 18.9 9.8 9.9 18.5 20.9 17 22.1 7.9 11.5 7.5 11.7 13.8 24.3 12.1 25.1 5.4 12.8 9.5 26.3 7.6 26.8 3.1 13.6 4.8 27.5 1.6 13.8 1.2 13.9 1 27.9m20 0-.2 13.9-1.9 27.9-3.6 27.6-2.5 13.7-6.4 27.2-3.8 13.4-4.3 13.3-9.9 26.1-11.6 25.3-6.4 12.4-14 24.1-7.6 11.7-8 11.5-17 22.1-18.5 20.9-9.7 9.9-10.1 9.7-21 18.3-22.2 16.9-11.6 7.8-11.7 7.5-24.2 13.9-12.5 6.3-25.5 11.3-26.1 9.7-13.3 4.2-13.5 3.7-27.2 6.1-13.7 2.4-27.7 3.5-13.9 1-27.9 .7-27.9-1.2-13.8-1.2-27.7-3.9-13.7-2.6-13.6-3.1-26.8-7.5-26.4-9.2-12.9-5.3-12.7-5.6-24.9-12.6-24-14.3-11.6-7.6-11.4-8.1-21.9-17.2-10.6-9.2-20.1-19.3-9.6-10.2-18.1-21.2-8.5-11-16-22.9-14.4-23.9-6.6-12.2-12-25.2-5.3-12.9-5-13-8.5-26.6-6.8-27-5.1-27.5-1.8-13.8-2.3-27.8-.4-13.9 .4-27.9 .9-13.9 1.4-13.9 4.1-27.6 2.8-13.7 6.8-27 8.5-26.6 5-13 11.1-25.6 6.2-12.5 13.6-24.3 7.4-11.8 16-22.9 8.5-11 8.9-10.8 18.8-20.6 20.1-19.3 10.6-9.2 21.9-17.2 11.4-8.1 11.6-7.6 24-14.3 12.3-6.5 25.3-11.7 26-10.1 13.3-4.4 26.8-7.5 13.6-3.1 27.5-4.8 13.9-1.7 13.8-1.2 27.9-1.2 27.9 .7 13.9 1 27.7 3.5 13.7 2.4 13.7 2.8 27 7 26.4 8.8 13 5.1 25.5 11.3 12.5 6.3 24.2 13.9 11.7 7.5 11.6 7.8 22.2 16.9 21 18.3 10.1 9.7 19.1 20.2 9.1 10.6 8.7 10.9 16.3 22.7 14.8 23.6 6.8 12.2 6.4 12.4 11.6 25.3 9.9 26.1 4.3 13.3 7.2 26.9 3 13.7 2.5 13.7 3.6 27.6 1.9 27.9 .2 13.9m4 0-.9 27.8-1.1 13.9-1.6 13.9-4.5 27.5-6.3 27.1-3.8 13.4-9 26.4-5 13-5.6 12.8-12.2 25-6.8 12.2-14.6 23.7-16.2 22.7-8.6 10.9-18.3 21.1-9.6 10-10 9.7-20.9 18.5-10.8 8.7-22.6 16.4-23.6 14.8-12.1 6.8-12.4 6.5-25.3 11.6-12.9 5.2-26.4 9.1-13.3 4-27.1 6.5-27.5 4.7-13.8 1.7-13.9 1.3-27.8 1.1-13.9-.1-27.9-1.6-27.6-3.4-13.8-2.4-13.6-2.8-27-6.9-13.3-4.2-26.2-9.5-12.8-5.4-25.1-12.1-12.3-6.6-23.8-14.5-11.5-7.8-22.3-16.7-10.8-8.9-20.5-18.8-9.8-9.9-18.7-20.7-8.8-10.8-16.5-22.4-7.7-11.6-14.3-24-6.5-12.3-11.8-25.2-5.4-12.9-9.3-26.2-7.6-26.8-3.2-13.6-4.9-27.4-1.8-13.8-1.4-13.9-1.3-27.8 0-14 1.3-27.8 1.4-13.9 4-27.5 2.7-13.7 6.8-27 4-13.4 9.3-26.2 11.1-25.6 6.1-12.5 13.5-24.4 7.3-11.9 15.8-22.9 8.4-11.1 8.8-10.8 18.7-20.7 9.8-9.9 20.5-18.8 10.8-8.9 22.3-16.7 11.5-7.8 23.8-14.5 12.3-6.6 25.1-12.1 12.8-5.4 26.2-9.5 13.3-4.2 27-6.9 27.4-5.2 13.8-1.9 27.7-2.5 14-.6 27.8 .3 13.9 .7 13.9 1.3 27.6 3.8 27.3 5.7 26.8 7.4 13.3 4.3 26 10 12.7 5.6 25 12.5 24 14 11.7 7.6 22.6 16.4 10.8 8.7 10.6 9.1 20.3 19.1 9.6 10 18.3 21.1 16.9 22.1 7.9 11.5 14.6 23.7 6.8 12.2 6.3 12.4 11.5 25.4 9.7 26.1 4.3 13.3 3.8 13.4 6.3 27.1 4.5 27.5 1.6 13.9 1.1 13.9 .9 27.8"/><path fill="none" stroke="#e6e1d6" stroke-width="1" stroke-opacity="0.6" stroke-linecap="round" stroke-linejoin="round" d="m1034 450 14 0m-14 11 5 0m-6 12 5 0m-5 11 5 0m-6 11 5 1m-7 11 9 1m-10 10 5 1m-7 10 5 1m-7 10 4 1m-7 10 5 1m-8 10 14 4m-17 7 5 2m-8 9 5 2m-9 9 5 2m-9 9 5 1m-9 9 8 3m-13 8 5 2m-9 8 4 2m-9 8 4 2m-10 8 5 2m-10 8 12 7m-18 3 4 2m-10 7 4 3m-10 7 4 3m-11 6 4 3m-11 6 7 5m-14 4 4 3m-11 6 4 3m-11 5 3 4m-11 5 3 3m-11 5 10 10m-18-2 3 3m-12 5 4 3m-12 4 3 4m-12 3 3 4m-12 3 5 7m-14 0 3 4m-12 3 3 4m-13 2 3 4m-12 2 2 4m-12 2 7 12m-17-7 2 5m-12 1 2 4m-12 1 2 4m-12 0 2 5m-13 0 3 8m-13-4 1 5m-12-1 2 5m-13-1 2 5m-13-2 2 5m-13-2 4 14m-15-11 1 5m-12-2 1 4m-12-2 1 5m-12-3 1 5m-12-4 1 9m-13-7 1 5m-12-4 0 5m-11-5 0 5m-12-4 0 5m-11-5 0 14m-11-14 0 5m-12-6 0 5m-11-5 0 5m-11-6-1 5m-11-7-1 9m-10-10-1 5m-10-7-1 5m-10-7-1 4m-10-7-1 5m-10-8-4 14m-7-17-2 5m-9-8-2 5m-9-9-2 5m-9-9-1 5m-9-9-3 8m-8-13-2 5m-8-9-2 4m-8-9-2 4m-8-10-2 5m-8-10-7 12m-3-18-2 4m-7-10-3 4m-7-10-3 4m-6-11-3 4m-6-11-5 7m-4-14-3 4m-6-11-3 4m-5-11-4 3m-5-11-3 3m-5-11-10 10m2-18-3 3m-5-12-3 4m-4-12-4 3m-3-12-4 3m-3-12-7 5m0-14-4 3m-3-12-4 3m-2-13-4 3m-2-12-4 2m-2-12-12 7m7-17-5 2m-1-12-4 2m-1-12-4 2m0-12-5 2m0-13-8 3m4-13-5 1m1-12-5 2m1-13-5 2m2-13-5 2m2-13-14 4m11-15-5 1m2-12-4 1m2-12-5 1m3-12-5 1m4-12-9 1m7-13-5 1m4-12-5 0m5-11-5 0m4-12-5 0m5-11-14 0m14-11-5 0m6-12-5 0m5-11-5 0m6-11-5-1m7-11-9-1m10-10-5-1m7-10-5-1m7-10-4-1m7-10-5-1m8-10-14-4m17-7-5-2m8-9-5-2m9-9-5-2m9-9-5-1m9-9-8-3m13-8-5-2m9-8-4-2m9-8-4-2m10-8-5-2m10-8-12-7m18-3-4-2m10-7-4-3m10-7-4-3m11-6-4-3m11-6-7-5m14-4-4-3m11-6-4-3m11-5-3-4m11-5-3-3m11-5-10-10m18 2-3-3m12-5-4-3m12-4-3-4m12-3-3-4m12-3-5-7m14 0-3-4m12-3-3-4m13-2-3-4m12-2-2-4m12-2-7-12m17 7-2-5m12-1-2-4m12-1-2-4m12 0-2-5m13 0-3-8m13 4-1-5m12 1-2-5m13 1-2-5m13 2-2-5m13 2-4-14m15 11-1-5m12 2-1-4m12 2-1-5m12 3-1-5m12 4-1-9m13 7-1-5m12 4 0-5m11 5 0-5m12 4 0-5m11 5 0-14m11 14 0-5m12 6 0-5m11 5 0-5m11 6 1-5m11 7 1-9m10 10 1-5m10 7 1-5m10 7 1-4m10 7 1-5m10 8 4-14m7 17 2-5m9 8 2-5m9 9 2-5m9 9 1-5m9 9 3-8m8 13 2-5m8 9 2-4m8 9 2-4m8 10 2-5m8 10 7-12m3 18 2-4m7 10 3-4m7 10 3-4m6 11 3-4m6 11 5-7m4 14 3-4m6 11 3-4m5 11 4-3m5 11 3-3m5 11 10-10m-2 18 3-3m5 12 3-4m4 12 4-3m3 12 4-3m3 12 7-5m0 14 4-3m3 12 4-3m2 13 4-3m2 12 4-2m2 12 12-7m-7 17 5-2m1 12 4-2m1 12 4-2m0 12 5-2m0 13 8-3m-4 13 5-1m-1 12 5-2m-1 13 5-2m-2 13 5-2m-2 13 14-4m-11 15 5-1m-2 12 4-1m-2 12 5-1m-3 12 5-1m-4 12 9-1m-7 13 5-1m-4 12 5 0m-5 11 5 0m-4 12 5 0"/><path fill="none" stroke="#e6e1d6" stroke-width="1.2" stroke-opacity="0.9" stroke-linecap="round" stroke-linejoin="round" d="m1003.5 429.8 .5 20.2-.5 20.2 20 1 .5-21.2-.5-21.2zm-44 204.5-9.6 17.7-10.6 17.2 16.8 10.9 11.1-18.1 10.1-18.6zm-140.3 155-17.2 10.6-17.7 9.6 9.1 17.8 18.6-10.1 18.1-11.1zm-199 64.2-20.2 .5-20.2-.5-1 20 21.2 .5 21.2-.5zm-204.5-44-17.7-9.6-17.2-10.6-10.9 16.8 18.1 11.1 18.6 10.1zm-155-140.3-10.6-17.2-9.6-17.7-17.8 9.1 10.1 18.6 11.1 18.1zm-64.2-199-.5-20.2 .5-20.2-20-1-.5 21.2 .5 21.2zm44-204.5 9.6-17.7 10.6-17.2-16.8-10.9-11.1 18.1-10.1 18.6zm140.3-155 17.2-10.6 17.7-9.6-9.1-17.8-18.6 10.1-18.1 11.1zm199-64.2 20.2-.5 20.2 .5 1-20-21.2-.5-21.2 .5zm204.5 44 17.7 9.6 17.2 10.6 10.9-16.8-18.1-11.1-18.6-10.1zm155 140.3 10.6 17.2 9.6 17.7 17.8-9.1-10.1-18.6-11.1-18.1z"/><path fill="none" stroke="#8f8b84" stroke-width="1.2" stroke-opacity="0.36" stroke-linecap="round" stroke-linejoin="round" d="m1002.8 418.5 1 20.2 .1 20.2 20 .4-.1-21.2-1.1-21.1zm-38.2 205.6-9.2 18-10.1 17.5 17.1 10.4 10.6-18.4 9.6-18.9zm-136 159-16.9 11-17.4 10.1 9.6 17.6 18.3-10.7 17.8-11.5zm-197.1 69.7-20.2 1-20.2 .1-.4 20 21.2-.1 21.1-1.1zm-205.6-38.2-18-9.2-17.5-10.1-10.4 17.1 18.4 10.6 18.9 9.6zm-159-136-11-16.9-10.1-17.4-17.6 9.6 10.7 18.3 11.5 17.8zm-69.7-197.1-1-20.2-.1-20.2-20-.4 .1 21.2 1.1 21.1zm38.2-205.6 9.2-18 10.1-17.5-17.1-10.4-10.6 18.4-9.6 18.9zm136-159 16.9-11 17.4-10.1-9.6-17.6-18.3 10.7-17.8 11.5zm197.1-69.7 20.2-1 20.2-.1 .4-20-21.2 .1-21.1 1.1zm205.6 38.2 18 9.2 17.5 10.1 10.4-17.1-18.4-10.6-18.9-9.6zm159 136 11 16.9 10.1 17.4 17.6-9.6-10.7-18.3-11.5-17.8z"/><path fill="none" stroke="#8f8b84" stroke-width="1.2" stroke-opacity="0.26" stroke-linecap="round" stroke-linejoin="round" d="m1001.7 407.3 1.7 20.1 .6 20.2 20-.1-.7-21.2-1.7-21.2zm-32.4 206.5-8.7 18.3-9.5 17.8 17.4 9.9 10-18.7 9.1-19.1zm-131.4 162.7-16.6 11.5-17.2 10.7 10.1 17.2 18-11.1 17.5-12.1zm-195.2 75.2-20.1 1.7-20.2 .6 .1 20 21.2-.7 21.2-1.7zm-206.5-32.4-18.3-8.7-17.8-9.5-9.9 17.4 18.7 10 19.1 9.1zm-162.7-131.4-11.5-16.6-10.7-17.2-17.2 10.1 11.1 18 12.1 17.5zm-75.2-195.2-1.7-20.1-.6-20.2-20 .1 .7 21.2 1.7 21.2zm32.4-206.5 8.7-18.3 9.5-17.8-17.4-9.9-10 18.7-9.1 19.1zm131.4-162.7 16.6-11.5 17.2-10.7-10.1-17.2-18 11.1-17.5 12.1zm195.2-75.2 20.1-1.7 20.2-.6-.1-20-21.2 .7-21.2 1.7zm206.5 32.4 18.3 8.7 17.8 9.5 9.9-17.4-18.7-10-19.1-9.1zm162.7 131.4 11.5 16.6 10.7 17.2 17.2-10.1-11.1-18-12.1-17.5z"/><path fill="none" stroke="#8f8b84" stroke-width="1.2" stroke-opacity="0.19" stroke-linecap="round" stroke-linejoin="round" d="m1000.4 396 2.2 20.1 1.2 20.2 20-.7-1.3-21.2-2.3-21zm-26.7 207.4-8.1 18.5-9.1 18.1 17.7 9.4 9.5-19 8.5-19.4zm-126.8 166.4-16.3 11.9-16.8 11.1 10.6 17 17.7-11.7 17.1-12.5zm-192.9 80.6-20.1 2.2-20.2 1.2 .7 20 21.2-1.3 21-2.3zm-207.4-26.7-18.5-8.1-18.1-9.1-9.4 17.7 19 9.5 19.4 8.5zm-166.4-126.8-11.9-16.3-11.1-16.8-17 10.6 11.7 17.7 12.5 17.1zm-80.6-192.9-2.2-20.1-1.2-20.2-20 .7 1.3 21.2 2.3 21zm26.7-207.4 8.1-18.5 9.1-18.1-17.7-9.4-9.5 19-8.5 19.4zm126.8-166.4 16.3-11.9 16.8-11.1-10.6-17-17.7 11.7-17.1 12.5zm192.9-80.6 20.1-2.2 20.2-1.2-.7-20-21.2 1.3-21 2.3zm207.4 26.7 18.5 8.1 18.1 9.1 9.4-17.7-19-9.5-19.4-8.5zm166.4 126.8 11.9 16.3 11.1 16.8 17-10.6-11.7-17.7-12.5-17.1z"/><path fill="none" stroke="#8f8b84" stroke-width="1.2" stroke-opacity="0.13" stroke-linecap="round" stroke-linejoin="round" d="m998.7 384.8 2.8 20 1.7 20.2 20-1.3-1.9-21.1-2.9-21zm-20.8 208.1-7.6 18.7-8.6 18.3 17.9 8.9 9-19.2 8-19.6zm-122.1 169.8-16 12.4-16.5 11.6 11 16.7 17.4-12.2 16.7-13zm-190.6 86-20 2.8-20.2 1.7 1.3 20 21.1-1.9 21-2.9zm-208.1-20.8-18.7-7.6-18.3-8.6-8.9 17.9 19.2 9 19.6 8zm-169.8-122.1-12.4-16-11.6-16.5-16.7 11 12.2 17.4 13 16.7zm-86-190.6-2.8-20-1.7-20.2-20 1.3 1.9 21.1 2.9 21zm20.8-208.1 7.6-18.7 8.6-18.3-17.9-8.9-9 19.2-8 19.6zm122.1-169.8 16-12.4 16.5-11.6-11-16.7-17.4 12.2-16.7 13zm190.6-86 20-2.8 20.2-1.7-1.3-20-21.1 1.9-21 2.9zm208.1 20.8 18.7 7.6 18.3 8.6 8.9-17.9-19.2-9-19.6-8zm169.8 122.1 12.4 16 11.6 16.5 16.7-11-12.2-17.4-13-16.7z"/><path fill="none" stroke="#8f8b84" stroke-width="1.2" stroke-opacity="0.1" stroke-linecap="round" stroke-linejoin="round" d="m996.7 373.7 3.3 19.9 2.4 20.1 19.9-1.8-2.4-21.1-3.5-20.9zm-15 208.6-7.1 18.9-8 18.5 18.2 8.4 8.4-19.4 7.4-19.9zm-117.3 173.1-15.6 12.9-16.2 12 11.5 16.4 17.1-12.7 16.3-13.5zm-188.1 91.3-19.9 3.3-20.1 2.4 1.8 19.9 21.1-2.4 20.9-3.5zm-208.6-15-18.9-7.1-18.5-8-8.4 18.2 19.4 8.4 19.9 7.4zm-173.1-117.3-12.9-15.6-12-16.2-16.4 11.5 12.7 17.1 13.5 16.3zm-91.3-188.1-3.3-19.9-2.4-20.1-19.9 1.8 2.4 21.1 3.5 20.9zm15-208.6 7.1-18.9 8-18.5-18.2-8.4-8.4 19.4-7.4 19.9zm117.3-173.1 15.6-12.9 16.2-12-11.5-16.4-17.1 12.7-16.3 13.5zm188.1-91.3 19.9-3.3 20.1-2.4-1.8-19.9-21.1 2.4-20.9 3.5zm208.6 15 18.9 7.1 18.5 8 8.4-18.2-19.4-8.4-19.9-7.4zm173.1 117.3 12.9 15.6 12 16.2 16.4-11.5-12.7-17.1-13.5-16.3z"/><path fill="none" stroke="#8f8b84" stroke-width="1.2" stroke-opacity="0.07" stroke-linecap="round" stroke-linejoin="round" d="m994.4 362.6 3.9 19.8 2.9 20 19.9-2.3-3.1-21-4-20.8zm-9.1 208.9-6.6 19.2-7.5 18.7 18.4 7.9 7.9-19.7 6.9-20zm-112.4 176.4-15.2 13.3-15.9 12.5 12 16 16.6-13.1 16-13.9zm-185.5 96.5-19.8 3.9-20 2.9 2.3 19.9 21-3.1 20.8-4zm-208.9-9.1-19.2-6.6-18.7-7.5-7.9 18.4 19.7 7.9 20 6.9zm-176.4-112.4-13.3-15.2-12.5-15.9-16 12 13.1 16.6 13.9 16zm-96.5-185.5-3.9-19.8-2.9-20-19.9 2.3 3.1 21 4 20.8zm9.1-208.9 6.6-19.2 7.5-18.7-18.4-7.9-7.9 19.7-6.9 20zm112.4-176.4 15.2-13.3 15.9-12.5-12-16-16.6 13.1-16 13.9zm185.5-96.5 19.8-3.9 20-2.9-2.3-19.9-21 3.1-20.8 4zm208.9 9.1 19.2 6.6 18.7 7.5 7.9-18.4-19.7-7.9-20-6.9zm176.4 112.4 13.3 15.2 12.5 15.9 16-12-13.1-16.6-13.9-16z"/><circle cx="600" cy="450" r="390" fill="url(#g1)"/><circle cx="600" cy="450" r="130" fill="url(#g2)"/><path fill="none" stroke="#ff3d6e" stroke-width="2.2" stroke-opacity="0.9" stroke-linecap="round" stroke-linejoin="round" style="mix-blend-mode:screen" d="m976.1 546-8.8 29.8-10.4 26.9-12.3 26.1-14.2 25.1-16.1 23.9-17.7 22.7-19.5 21.3-20.9 19.8m96.7-129.8-9.9 19.9-12 21.2-13.4 20.4-13.3 17.8"/><path fill="none" stroke="#ff8f3a" stroke-width="2.2" stroke-opacity="0.9" stroke-linecap="round" stroke-linejoin="round" style="mix-blend-mode:screen" d="m978.7 546.7-8.9 29.7-10.3 26.8-12.2 26-14.1 25.1-17.2 25.7-17.8 22.6-19.4 21.2-20.9 19.8m97.3-130.7-9.9 20-12.1 21.4-12.2 18.7-14.7 19.7"/><path fill="none" stroke="#ffe04a" stroke-width="2.2" stroke-opacity="0.9" stroke-linecap="round" stroke-linejoin="round" style="mix-blend-mode:screen" d="m981.2 547.3-8.9 29.9-10.4 27-12.3 26.2-14.2 25.2-16 24.1-19.2 24.6-19.5 21.4-21.1 19.9m98-131.6-10 20.2-12.2 21.4-12.3 18.8-14.7 19.9"/><path fill="none" stroke="#5dff8f" stroke-width="2.2" stroke-opacity="0.9" stroke-linecap="round" stroke-linejoin="round" style="mix-blend-mode:screen" d="m983.7 548-8.2 27.7-11 29-12.2 26.2-15.3 27-17.3 25.8-17.9 22.7-19.5 21.3-20.9 19.8m98.6-132.4-10.9 21.8-10.9 19.1-13.3 20.4-14.5 19.5"/><path fill="none" stroke="#3fd8ff" stroke-width="2.2" stroke-opacity="0.9" stroke-linecap="round" stroke-linejoin="round" style="mix-blend-mode:screen" d="m986.2 548.6-8.8 29.7-10.3 26.9-13.1 28.1-14.2 25-15.9 24-19 24.5-20.9 22.9-20.9 19.8m99.2-133.3-9.8 19.9-12.1 21.3-13.4 20.5-14.6 19.6"/><path fill="none" stroke="#5b6bff" stroke-width="2.2" stroke-opacity="0.9" stroke-linecap="round" stroke-linejoin="round" style="mix-blend-mode:screen" d="m988.7 549.3-8.9 29.9-10.3 27-13.2 28.3-14.3 25.2-17.3 25.9-17.8 22.9-21.1 23-21 19.9m99.9-134.2-11 22.1-11.1 19.4-13.4 20.7-14.7 19.7"/><path fill="none" stroke="#c35cff" stroke-width="2.2" stroke-opacity="0.9" stroke-linecap="round" stroke-linejoin="round" style="mix-blend-mode:screen" d="m991.2 549.9-8.8 29.8-10.3 27-13.1 28.2-14.2 25.2-15.9 24.1-19 24.7-20.8 23-22.6 21.5m100.5-135.1-10.7 21.7-12.1 21.1-13.2 20.2-14.5 19.5"/><rect width="1200" height="900" filter="url(#n3)" opacity="0.12"/><rect width="1200" height="900" fill="url(#s4)" opacity=".32"/></g></svg>
